<?xml version="1.0" encoding="UTF-8" standalone="no"?><svg xmlns="http://www.w3.org/2000/svg" xmlns:xlink="http://www.w3.org/1999/xlink" contentScriptType="application/ecmascript" contentStyleType="text/css" height="662px" preserveAspectRatio="none" style="width:1153px;height:662px;background:#FFFFFF;" version="1.1" viewBox="0 0 1153 662" width="1153px" zoomAndPan="magnify"><defs><filter height="300%" id="f12dlublu9a85m" width="300%" x="-1" y="-1"><feGaussianBlur result="blurOut" stdDeviation="2.0"/><feColorMatrix in="blurOut" result="blurOut2" type="matrix" values="0 0 0 0 0 0 0 0 0 0 0 0 0 0 0 0 0 0 .4 0"/><feOffset dx="4.0" dy="4.0" in="blurOut2" result="blurOut3"/><feBlend in="SourceGraphic" in2="blurOut3" mode="normal"/></filter></defs><g><rect codeLine="1" fill="#FEFECE" filter="url(#f12dlublu9a85m)" height="60.8047" id="ModelParser" style="stroke:#A80036;stroke-width:1.5;" width="221" x="389.5" y="45.5"/><ellipse cx="456.75" cy="61.5" fill="#ADD1B2" rx="11" ry="11" style="stroke:#A80036;stroke-width:1.0;"/><path d="M459.7188,67.1406 Q459.1406,67.4375 458.5,67.5859 Q457.8594,67.7344 457.1563,67.7344 Q454.6563,67.7344 453.3359,66.0859 Q452.0156,64.4375 452.0156,61.3125 Q452.0156,58.1875 453.3359,56.5313 Q454.6563,54.875 457.1563,54.875 Q457.8594,54.875 458.5078,55.0313 Q459.1563,55.1875 459.7188,55.4844 L459.7188,58.2031 Q459.0938,57.625 458.5,57.3516 Q457.9063,57.0781 457.2813,57.0781 Q455.9375,57.0781 455.25,58.1484 Q454.5625,59.2188 454.5625,61.3125 Q454.5625,63.4063 455.25,64.4766 Q455.9375,65.5469 457.2813,65.5469 Q457.9063,65.5469 458.5,65.2734 Q459.0938,65 459.7188,64.4219 L459.7188,67.1406 Z " fill="#000000"/><text fill="#000000" font-family="sans-serif" font-size="12" lengthAdjust="spacing" textLength="78" x="477.25" y="65.6543">ModelParser</text><line style="stroke:#A80036;stroke-width:1.5;" x1="390.5" x2="609.5" y1="77.5" y2="77.5"/><line style="stroke:#A80036;stroke-width:1.5;" x1="390.5" x2="609.5" y1="85.5" y2="85.5"/><ellipse cx="400.5" cy="96.5" fill="#84BE84" rx="3" ry="3" style="stroke:#038048;stroke-width:1.0;"/><text fill="#000000" font-family="sans-serif" font-size="11" lengthAdjust="spacing" text-decoration="underline" textLength="195" x="409.5" y="99.7104">ProcessModel parse(byte [] bytes)</text><rect codeLine="4" fill="#FEFECE" filter="url(#f12dlublu9a85m)" height="137.6328" id="LfModel" style="stroke:#A80036;stroke-width:1.5;" width="149" x="205.5" y="7"/><ellipse cx="252.25" cy="23" fill="#ADD1B2" rx="11" ry="11" style="stroke:#A80036;stroke-width:1.0;"/><path d="M255.2188,28.6406 Q254.6406,28.9375 254,29.0859 Q253.3594,29.2344 252.6563,29.2344 Q250.1563,29.2344 248.8359,27.5859 Q247.5156,25.9375 247.5156,22.8125 Q247.5156,19.6875 248.8359,18.0313 Q250.1563,16.375 252.6563,16.375 Q253.3594,16.375 254.0078,16.5313 Q254.6563,16.6875 255.2188,16.9844 L255.2188,19.7031 Q254.5938,19.125 254,18.8516 Q253.4063,18.5781 252.7813,18.5781 Q251.4375,18.5781 250.75,19.6484 Q250.0625,20.7188 250.0625,22.8125 Q250.0625,24.9063 250.75,25.9766 Q251.4375,27.0469 252.7813,27.0469 Q253.4063,27.0469 254,26.7734 Q254.5938,26.5 255.2188,25.9219 L255.2188,28.6406 Z " fill="#000000"/><text fill="#000000" font-family="sans-serif" font-size="12" lengthAdjust="spacing" textLength="47" x="272.75" y="27.1543">LfModel</text><line style="stroke:#A80036;stroke-width:1.5;" x1="206.5" x2="353.5" y1="39" y2="39"/><text fill="#000000" font-family="sans-serif" font-size="11" lengthAdjust="spacing" textLength="74" x="211.5" y="53.2104">String name;</text><text fill="#000000" font-family="sans-serif" font-size="11" lengthAdjust="spacing" textLength="115" x="211.5" y="66.0151">String displayName;</text><text fill="#000000" font-family="sans-serif" font-size="11" lengthAdjust="spacing" textLength="105" x="211.5" y="78.8198">String expireTime;</text><text fill="#000000" font-family="sans-serif" font-size="11" lengthAdjust="spacing" textLength="106" x="211.5" y="91.6245">String instanceUrl;</text><text fill="#000000" font-family="sans-serif" font-size="11" lengthAdjust="spacing" textLength="137" x="211.5" y="104.4292">String instanceNoClass;</text><text fill="#000000" font-family="sans-serif" font-size="11" lengthAdjust="spacing" textLength="120" x="211.5" y="117.2339">List&lt;LfNode&gt; nodes;</text><text fill="#000000" font-family="sans-serif" font-size="11" lengthAdjust="spacing" textLength="119" x="211.5" y="130.0386">List&lt;LfEdge&gt; edges;</text><line style="stroke:#A80036;stroke-width:1.5;" x1="206.5" x2="353.5" y1="136.6328" y2="136.6328"/><rect codeLine="13" fill="#FEFECE" filter="url(#f12dlublu9a85m)" height="137.6328" id="LFNode" style="stroke:#A80036;stroke-width:1.5;" width="131" x="302.5" y="217.5"/><ellipse cx="341.35" cy="233.5" fill="#ADD1B2" rx="11" ry="11" style="stroke:#A80036;stroke-width:1.0;"/><path d="M344.3188,239.1406 Q343.7406,239.4375 343.1,239.5859 Q342.4594,239.7344 341.7563,239.7344 Q339.2563,239.7344 337.9359,238.0859 Q336.6156,236.4375 336.6156,233.3125 Q336.6156,230.1875 337.9359,228.5313 Q339.2563,226.875 341.7563,226.875 Q342.4594,226.875 343.1078,227.0313 Q343.7563,227.1875 344.3188,227.4844 L344.3188,230.2031 Q343.6938,229.625 343.1,229.3516 Q342.5063,229.0781 341.8813,229.0781 Q340.5375,229.0781 339.85,230.1484 Q339.1625,231.2188 339.1625,233.3125 Q339.1625,235.4063 339.85,236.4766 Q340.5375,237.5469 341.8813,237.5469 Q342.5063,237.5469 343.1,237.2734 Q343.6938,237 344.3188,236.4219 L344.3188,239.1406 Z " fill="#000000"/><text fill="#000000" font-family="sans-serif" font-size="12" lengthAdjust="spacing" textLength="46" x="360.65" y="237.6543">LFNode</text><line style="stroke:#A80036;stroke-width:1.5;" x1="303.5" x2="432.5" y1="249.5" y2="249.5"/><text fill="#000000" font-family="sans-serif" font-size="11" lengthAdjust="spacing" textLength="52" x="308.5" y="263.7104">String id;</text><text fill="#000000" font-family="sans-serif" font-size="11" lengthAdjust="spacing" textLength="66" x="308.5" y="276.5151">String type;</text><text fill="#000000" font-family="sans-serif" font-size="11" lengthAdjust="spacing" textLength="28" x="308.5" y="289.3198">int x;</text><text fill="#000000" font-family="sans-serif" font-size="11" lengthAdjust="spacing" textLength="28" x="308.5" y="302.1245">int y;</text><text fill="#000000" font-family="sans-serif" font-size="11" lengthAdjust="spacing" textLength="50" x="308.5" y="314.9292">Dict text;</text><text fill="#000000" font-family="sans-serif" font-size="11" lengthAdjust="spacing" textLength="88" x="308.5" y="327.7339">Dict properties;</text><text fill="#000000" font-family="sans-serif" font-size="11" lengthAdjust="spacing" textLength="119" x="308.5" y="340.5386">List&lt;LfEdge&gt; edges;</text><line style="stroke:#A80036;stroke-width:1.5;" x1="303.5" x2="432.5" y1="347.1328" y2="347.1328"/><rect codeLine="22" fill="#FEFECE" filter="url(#f12dlublu9a85m)" height="73.6094" id="LfPoint" style="stroke:#A80036;stroke-width:1.5;" width="74" x="7" y="249.5"/><ellipse cx="22" cy="265.5" fill="#ADD1B2" rx="11" ry="11" style="stroke:#A80036;stroke-width:1.0;"/><path d="M24.9688,271.1406 Q24.3906,271.4375 23.75,271.5859 Q23.1094,271.7344 22.4063,271.7344 Q19.9063,271.7344 18.5859,270.0859 Q17.2656,268.4375 17.2656,265.3125 Q17.2656,262.1875 18.5859,260.5313 Q19.9063,258.875 22.4063,258.875 Q23.1094,258.875 23.7578,259.0313 Q24.4063,259.1875 24.9688,259.4844 L24.9688,262.2031 Q24.3438,261.625 23.75,261.3516 Q23.1563,261.0781 22.5313,261.0781 Q21.1875,261.0781 20.5,262.1484 Q19.8125,263.2188 19.8125,265.3125 Q19.8125,267.4063 20.5,268.4766 Q21.1875,269.5469 22.5313,269.5469 Q23.1563,269.5469 23.75,269.2734 Q24.3438,269 24.9688,268.4219 L24.9688,271.1406 Z " fill="#000000"/><text fill="#000000" font-family="sans-serif" font-size="12" lengthAdjust="spacing" textLength="42" x="36" y="269.6543">LfPoint</text><line style="stroke:#A80036;stroke-width:1.5;" x1="8" x2="80" y1="281.5" y2="281.5"/><text fill="#000000" font-family="sans-serif" font-size="11" lengthAdjust="spacing" textLength="28" x="13" y="295.7104">int x;</text><text fill="#000000" font-family="sans-serif" font-size="11" lengthAdjust="spacing" textLength="28" x="13" y="308.5151">int y;</text><line style="stroke:#A80036;stroke-width:1.5;" x1="8" x2="80" y1="315.1094" y2="315.1094"/><rect codeLine="26" fill="#FEFECE" filter="url(#f12dlublu9a85m)" height="163.2422" id="LfEdge" style="stroke:#A80036;stroke-width:1.5;" width="151" x="116.5" y="205"/><ellipse cx="166.75" cy="221" fill="#ADD1B2" rx="11" ry="11" style="stroke:#A80036;stroke-width:1.0;"/><path d="M169.7188,226.6406 Q169.1406,226.9375 168.5,227.0859 Q167.8594,227.2344 167.1563,227.2344 Q164.6563,227.2344 163.3359,225.5859 Q162.0156,223.9375 162.0156,220.8125 Q162.0156,217.6875 163.3359,216.0313 Q164.6563,214.375 167.1563,214.375 Q167.8594,214.375 168.5078,214.5313 Q169.1563,214.6875 169.7188,214.9844 L169.7188,217.7031 Q169.0938,217.125 168.5,216.8516 Q167.9063,216.5781 167.2813,216.5781 Q165.9375,216.5781 165.25,217.6484 Q164.5625,218.7188 164.5625,220.8125 Q164.5625,222.9063 165.25,223.9766 Q165.9375,225.0469 167.2813,225.0469 Q167.9063,225.0469 168.5,224.7734 Q169.0938,224.5 169.7188,223.9219 L169.7188,226.6406 Z " fill="#000000"/><text fill="#000000" font-family="sans-serif" font-size="12" lengthAdjust="spacing" textLength="42" x="187.25" y="225.1543">LfEdge</text><line style="stroke:#A80036;stroke-width:1.5;" x1="117.5" x2="266.5" y1="237" y2="237"/><text fill="#000000" font-family="sans-serif" font-size="11" lengthAdjust="spacing" textLength="52" x="122.5" y="251.2104">String id;</text><text fill="#000000" font-family="sans-serif" font-size="11" lengthAdjust="spacing" textLength="66" x="122.5" y="264.0151">String type;</text><text fill="#000000" font-family="sans-serif" font-size="11" lengthAdjust="spacing" textLength="120" x="122.5" y="276.8198">String sourceNodeId;</text><text fill="#000000" font-family="sans-serif" font-size="11" lengthAdjust="spacing" textLength="115" x="122.5" y="289.6245">String targetNodeId;</text><text fill="#000000" font-family="sans-serif" font-size="11" lengthAdjust="spacing" textLength="80" x="122.5" y="302.4292">ict properties;</text><text fill="#000000" font-family="sans-serif" font-size="11" lengthAdjust="spacing" textLength="50" x="122.5" y="315.2339">Dict text;</text><text fill="#000000" font-family="sans-serif" font-size="11" lengthAdjust="spacing" textLength="101" x="122.5" y="328.0386">LfPoint startPoint;</text><text fill="#000000" font-family="sans-serif" font-size="11" lengthAdjust="spacing" textLength="95" x="122.5" y="340.8433">LfPoint endPoint;</text><text fill="#000000" font-family="sans-serif" font-size="11" lengthAdjust="spacing" textLength="139" x="122.5" y="353.6479">List&lt;LfPoint&gt; pointsList;</text><line style="stroke:#A80036;stroke-width:1.5;" x1="117.5" x2="266.5" y1="360.2422" y2="360.2422"/><rect codeLine="37" fill="#FEFECE" filter="url(#f12dlublu9a85m)" height="73.6094" id="NodeParser" style="stroke:#A80036;stroke-width:1.5;" width="157" x="289.5" y="447"/><ellipse cx="327.45" cy="463" fill="#B4A7E5" rx="11" ry="11" style="stroke:#A80036;stroke-width:1.0;"/><path d="M323.3719,458.7656 L323.3719,456.6094 L330.7625,456.6094 L330.7625,458.7656 L328.2938,458.7656 L328.2938,466.8438 L330.7625,466.8438 L330.7625,469 L323.3719,469 L323.3719,466.8438 L325.8406,466.8438 L325.8406,458.7656 L323.3719,458.7656 Z " fill="#000000"/><text fill="#000000" font-family="sans-serif" font-size="12" font-style="italic" lengthAdjust="spacing" textLength="74" x="346.55" y="467.1543">NodeParser</text><line style="stroke:#A80036;stroke-width:1.5;" x1="290.5" x2="445.5" y1="479" y2="479"/><line style="stroke:#A80036;stroke-width:1.5;" x1="290.5" x2="445.5" y1="487" y2="487"/><text fill="#000000" font-family="sans-serif" font-size="11" lengthAdjust="spacing" textLength="145" x="295.5" y="501.2104">void parse(LFNode node);</text><text fill="#000000" font-family="sans-serif" font-size="11" lengthAdjust="spacing" textLength="129" x="295.5" y="514.0151">NodeModel getModel();</text><rect codeLine="41" fill="#FEFECE" filter="url(#f12dlublu9a85m)" height="112.0234" id="AbstractNodeParser" style="stroke:#A80036;stroke-width:1.5;" width="294" x="482" y="428"/><ellipse cx="561.25" cy="444" fill="#A9DCDF" rx="11" ry="11" style="stroke:#A80036;stroke-width:1.0;"/><path d="M561.3594,439.3438 L560.2031,444.4219 L562.5313,444.4219 L561.3594,439.3438 Z M559.875,437.1094 L562.8594,437.1094 L566.2188,449.5 L563.7656,449.5 L563,446.4375 L559.7188,446.4375 L558.9688,449.5 L556.5313,449.5 L559.875,437.1094 Z " fill="#000000"/><text fill="#000000" font-family="sans-serif" font-size="12" font-style="italic" lengthAdjust="spacing" textLength="127" x="581.75" y="448.1543">AbstractNodeParser</text><line style="stroke:#A80036;stroke-width:1.5;" x1="483" x2="775" y1="460" y2="460"/><polygon fill="none" points="493,466,497,470,493,474,489,470" style="stroke:#B38D22;stroke-width:1.0;"/><text fill="#000000" font-family="sans-serif" font-size="11" lengthAdjust="spacing" textLength="105" x="502" y="474.2104">NodeModel model;</text><line style="stroke:#A80036;stroke-width:1.5;" x1="483" x2="775" y1="480.8047" y2="480.8047"/><text fill="#000000" font-family="sans-serif" font-size="11" lengthAdjust="spacing" textLength="268" x="502" y="495.0151">void parse(LFNode node, List&lt;LfEdge&gt; edges);</text><polygon fill="#FFFF44" points="493,499.6094,497,503.6094,493,507.6094,489,503.6094" style="stroke:#B38D22;stroke-width:1.0;"/><text fill="#000000" font-family="sans-serif" font-size="11" font-style="italic" lengthAdjust="spacing" textLength="180" x="502" y="507.8198">void parseNode(LfNode lfNode);</text><polygon fill="#FFFF44" points="493,512.4141,497,516.4141,493,520.4141,489,516.4141" style="stroke:#B38D22;stroke-width:1.0;"/><text fill="#000000" font-family="sans-serif" font-size="11" font-style="italic" lengthAdjust="spacing" textLength="134" x="502" y="520.6245">NodeModel newModel();</text><text fill="#000000" font-family="sans-serif" font-size="11" lengthAdjust="spacing" textLength="129" x="502" y="533.4292">NodeModel getModel();</text><rect codeLine="48" fill="#FEFECE" filter="url(#f12dlublu9a85m)" height="48" id="StartParser" style="stroke:#A80036;stroke-width:1.5;" width="104" x="157" y="600"/><ellipse cx="172" cy="616" fill="#ADD1B2" rx="11" ry="11" style="stroke:#A80036;stroke-width:1.0;"/><path d="M174.9688,621.6406 Q174.3906,621.9375 173.75,622.0859 Q173.1094,622.2344 172.4063,622.2344 Q169.9063,622.2344 168.5859,620.5859 Q167.2656,618.9375 167.2656,615.8125 Q167.2656,612.6875 168.5859,611.0313 Q169.9063,609.375 172.4063,609.375 Q173.1094,609.375 173.7578,609.5313 Q174.4063,609.6875 174.9688,609.9844 L174.9688,612.7031 Q174.3438,612.125 173.75,611.8516 Q173.1563,611.5781 172.5313,611.5781 Q171.1875,611.5781 170.5,612.6484 Q169.8125,613.7188 169.8125,615.8125 Q169.8125,617.9063 170.5,618.9766 Q171.1875,620.0469 172.5313,620.0469 Q173.1563,620.0469 173.75,619.7734 Q174.3438,619.5 174.9688,618.9219 L174.9688,621.6406 Z " fill="#000000"/><text fill="#000000" font-family="sans-serif" font-size="12" lengthAdjust="spacing" textLength="72" x="186" y="620.1543">StartParser</text><line style="stroke:#A80036;stroke-width:1.5;" x1="158" x2="260" y1="632" y2="632"/><line style="stroke:#A80036;stroke-width:1.5;" x1="158" x2="260" y1="640" y2="640"/><rect codeLine="49" fill="#FEFECE" filter="url(#f12dlublu9a85m)" height="48" id="EndParser" style="stroke:#A80036;stroke-width:1.5;" width="97" x="296.5" y="600"/><ellipse cx="311.5" cy="616" fill="#ADD1B2" rx="11" ry="11" style="stroke:#A80036;stroke-width:1.0;"/><path d="M314.4688,621.6406 Q313.8906,621.9375 313.25,622.0859 Q312.6094,622.2344 311.9063,622.2344 Q309.4063,622.2344 308.0859,620.5859 Q306.7656,618.9375 306.7656,615.8125 Q306.7656,612.6875 308.0859,611.0313 Q309.4063,609.375 311.9063,609.375 Q312.6094,609.375 313.2578,609.5313 Q313.9063,609.6875 314.4688,609.9844 L314.4688,612.7031 Q313.8438,612.125 313.25,611.8516 Q312.6563,611.5781 312.0313,611.5781 Q310.6875,611.5781 310,612.6484 Q309.3125,613.7188 309.3125,615.8125 Q309.3125,617.9063 310,618.9766 Q310.6875,620.0469 312.0313,620.0469 Q312.6563,620.0469 313.25,619.7734 Q313.8438,619.5 314.4688,618.9219 L314.4688,621.6406 Z " fill="#000000"/><text fill="#000000" font-family="sans-serif" font-size="12" lengthAdjust="spacing" textLength="65" x="325.5" y="620.1543">EndParser</text><line style="stroke:#A80036;stroke-width:1.5;" x1="297.5" x2="392.5" y1="632" y2="632"/><line style="stroke:#A80036;stroke-width:1.5;" x1="297.5" x2="392.5" y1="640" y2="640"/><rect codeLine="50" fill="#FEFECE" filter="url(#f12dlublu9a85m)" height="48" id="TaskParser" style="stroke:#A80036;stroke-width:1.5;" width="102" x="429" y="600"/><ellipse cx="444" cy="616" fill="#ADD1B2" rx="11" ry="11" style="stroke:#A80036;stroke-width:1.0;"/><path d="M446.9688,621.6406 Q446.3906,621.9375 445.75,622.0859 Q445.1094,622.2344 444.4063,622.2344 Q441.9063,622.2344 440.5859,620.5859 Q439.2656,618.9375 439.2656,615.8125 Q439.2656,612.6875 440.5859,611.0313 Q441.9063,609.375 444.4063,609.375 Q445.1094,609.375 445.7578,609.5313 Q446.4063,609.6875 446.9688,609.9844 L446.9688,612.7031 Q446.3438,612.125 445.75,611.8516 Q445.1563,611.5781 444.5313,611.5781 Q443.1875,611.5781 442.5,612.6484 Q441.8125,613.7188 441.8125,615.8125 Q441.8125,617.9063 442.5,618.9766 Q443.1875,620.0469 444.5313,620.0469 Q445.1563,620.0469 445.75,619.7734 Q446.3438,619.5 446.9688,618.9219 L446.9688,621.6406 Z " fill="#000000"/><text fill="#000000" font-family="sans-serif" font-size="12" lengthAdjust="spacing" textLength="70" x="458" y="620.1543">TaskParser</text><line style="stroke:#A80036;stroke-width:1.5;" x1="430" x2="530" y1="632" y2="632"/><line style="stroke:#A80036;stroke-width:1.5;" x1="430" x2="530" y1="640" y2="640"/><rect codeLine="51" fill="#FEFECE" filter="url(#f12dlublu9a85m)" height="48" id="DecisionParser" style="stroke:#A80036;stroke-width:1.5;" width="126" x="566" y="600"/><ellipse cx="581" cy="616" fill="#ADD1B2" rx="11" ry="11" style="stroke:#A80036;stroke-width:1.0;"/><path d="M583.9688,621.6406 Q583.3906,621.9375 582.75,622.0859 Q582.1094,622.2344 581.4063,622.2344 Q578.9063,622.2344 577.5859,620.5859 Q576.2656,618.9375 576.2656,615.8125 Q576.2656,612.6875 577.5859,611.0313 Q578.9063,609.375 581.4063,609.375 Q582.1094,609.375 582.7578,609.5313 Q583.4063,609.6875 583.9688,609.9844 L583.9688,612.7031 Q583.3438,612.125 582.75,611.8516 Q582.1563,611.5781 581.5313,611.5781 Q580.1875,611.5781 579.5,612.6484 Q578.8125,613.7188 578.8125,615.8125 Q578.8125,617.9063 579.5,618.9766 Q580.1875,620.0469 581.5313,620.0469 Q582.1563,620.0469 582.75,619.7734 Q583.3438,619.5 583.9688,618.9219 L583.9688,621.6406 Z " fill="#000000"/><text fill="#000000" font-family="sans-serif" font-size="12" lengthAdjust="spacing" textLength="94" x="595" y="620.1543">DecisionParser</text><line style="stroke:#A80036;stroke-width:1.5;" x1="567" x2="691" y1="632" y2="632"/><line style="stroke:#A80036;stroke-width:1.5;" x1="567" x2="691" y1="640" y2="640"/><rect codeLine="52" fill="#FEFECE" filter="url(#f12dlublu9a85m)" height="48" id="ForkParser" style="stroke:#A80036;stroke-width:1.5;" width="100" x="727" y="600"/><ellipse cx="742" cy="616" fill="#ADD1B2" rx="11" ry="11" style="stroke:#A80036;stroke-width:1.0;"/><path d="M744.9688,621.6406 Q744.3906,621.9375 743.75,622.0859 Q743.1094,622.2344 742.4063,622.2344 Q739.9063,622.2344 738.5859,620.5859 Q737.2656,618.9375 737.2656,615.8125 Q737.2656,612.6875 738.5859,611.0313 Q739.9063,609.375 742.4063,609.375 Q743.1094,609.375 743.7578,609.5313 Q744.4063,609.6875 744.9688,609.9844 L744.9688,612.7031 Q744.3438,612.125 743.75,611.8516 Q743.1563,611.5781 742.5313,611.5781 Q741.1875,611.5781 740.5,612.6484 Q739.8125,613.7188 739.8125,615.8125 Q739.8125,617.9063 740.5,618.9766 Q741.1875,620.0469 742.5313,620.0469 Q743.1563,620.0469 743.75,619.7734 Q744.3438,619.5 744.9688,618.9219 L744.9688,621.6406 Z " fill="#000000"/><text fill="#000000" font-family="sans-serif" font-size="12" lengthAdjust="spacing" textLength="68" x="756" y="620.1543">ForkParser</text><line style="stroke:#A80036;stroke-width:1.5;" x1="728" x2="826" y1="632" y2="632"/><line style="stroke:#A80036;stroke-width:1.5;" x1="728" x2="826" y1="640" y2="640"/><rect codeLine="53" fill="#FEFECE" filter="url(#f12dlublu9a85m)" height="48" id="JoinParser" style="stroke:#A80036;stroke-width:1.5;" width="95" x="862.5" y="600"/><ellipse cx="877.5" cy="616" fill="#ADD1B2" rx="11" ry="11" style="stroke:#A80036;stroke-width:1.0;"/><path d="M880.4688,621.6406 Q879.8906,621.9375 879.25,622.0859 Q878.6094,622.2344 877.9063,622.2344 Q875.4063,622.2344 874.0859,620.5859 Q872.7656,618.9375 872.7656,615.8125 Q872.7656,612.6875 874.0859,611.0313 Q875.4063,609.375 877.9063,609.375 Q878.6094,609.375 879.2578,609.5313 Q879.9063,609.6875 880.4688,609.9844 L880.4688,612.7031 Q879.8438,612.125 879.25,611.8516 Q878.6563,611.5781 878.0313,611.5781 Q876.6875,611.5781 876,612.6484 Q875.3125,613.7188 875.3125,615.8125 Q875.3125,617.9063 876,618.9766 Q876.6875,620.0469 878.0313,620.0469 Q878.6563,620.0469 879.25,619.7734 Q879.8438,619.5 880.4688,618.9219 L880.4688,621.6406 Z " fill="#000000"/><text fill="#000000" font-family="sans-serif" font-size="12" lengthAdjust="spacing" textLength="63" x="891.5" y="620.1543">JoinParser</text><line style="stroke:#A80036;stroke-width:1.5;" x1="863.5" x2="956.5" y1="632" y2="632"/><line style="stroke:#A80036;stroke-width:1.5;" x1="863.5" x2="956.5" y1="640" y2="640"/><rect codeLine="54" fill="#FEFECE" filter="url(#f12dlublu9a85m)" height="48" id="SubProcessParser" style="stroke:#A80036;stroke-width:1.5;" width="147" x="992.5" y="600"/><ellipse cx="1007.5" cy="616" fill="#ADD1B2" rx="11" ry="11" style="stroke:#A80036;stroke-width:1.0;"/><path d="M1010.4688,621.6406 Q1009.8906,621.9375 1009.25,622.0859 Q1008.6094,622.2344 1007.9063,622.2344 Q1005.4063,622.2344 1004.0859,620.5859 Q1002.7656,618.9375 1002.7656,615.8125 Q1002.7656,612.6875 1004.0859,611.0313 Q1005.4063,609.375 1007.9063,609.375 Q1008.6094,609.375 1009.2578,609.5313 Q1009.9063,609.6875 1010.4688,609.9844 L1010.4688,612.7031 Q1009.8438,612.125 1009.25,611.8516 Q1008.6563,611.5781 1008.0313,611.5781 Q1006.6875,611.5781 1006,612.6484 Q1005.3125,613.7188 1005.3125,615.8125 Q1005.3125,617.9063 1006,618.9766 Q1006.6875,620.0469 1008.0313,620.0469 Q1008.6563,620.0469 1009.25,619.7734 Q1009.8438,619.5 1010.4688,618.9219 L1010.4688,621.6406 Z " fill="#000000"/><text fill="#000000" font-family="sans-serif" font-size="12" lengthAdjust="spacing" textLength="115" x="1021.5" y="620.1543">SubProcessParser</text><line style="stroke:#A80036;stroke-width:1.5;" x1="993.5" x2="1138.5" y1="632" y2="632"/><line style="stroke:#A80036;stroke-width:1.5;" x1="993.5" x2="1138.5" y1="640" y2="640"/><path codeLine="55" d="M245.9348,157.4855 C239.4438,173.0122 232.6485,189.267 226.1547,204.8004 " fill="none" id="LfModel-backto-LfEdge" style="stroke:#A80036;stroke-width:1.0;"/><polygon fill="#A80036" points="251.0636,145.2171,245.0588,149.2099,246.435,156.2885,252.4398,152.2957,251.0636,145.2171" style="stroke:#A80036;stroke-width:1.0;"/><path codeLine="56" d="M314.0082,157.3492 C322.275,177.1237 331.0386,198.0865 339.0462,217.2413 " fill="none" id="LfModel-backto-LFNode" style="stroke:#A80036;stroke-width:1.0;"/><polygon fill="#A80036" points="308.9364,145.2171,307.5602,152.2957,313.565,156.2885,314.9412,149.2099,308.9364,145.2171" style="stroke:#A80036;stroke-width:1.0;"/><path codeLine="57" d="M81,286.5 C88.3169,286.5 95.6338,286.5 102.9507,286.5 " fill="none" id="LfPoint-to-LfEdge" style="stroke:#A80036;stroke-width:1.0;"/><polygon fill="#A80036" points="116.1211,286.5,110.1211,282.5,104.1211,286.5,110.1211,290.5,116.1211,286.5" style="stroke:#A80036;stroke-width:1.0;"/><path codeLine="58" d="M272.7467,286.5 C282.5408,286.5 292.3348,286.5 302.1289,286.5 " fill="none" id="LfEdge-backto-LFNode" style="stroke:#A80036;stroke-width:1.0;"/><polygon fill="#A80036" points="267.625,286.5,276.625,290.5,272.625,286.5,276.625,282.5,267.625,286.5" style="stroke:#A80036;stroke-width:1.0;"/><path codeLine="59" d="M368,360.6485 C368,390.069 368,422.6011 368,446.8663 " fill="none" id="LFNode-backto-NodeParser" style="stroke:#A80036;stroke-width:1.0;"/><polygon fill="#A80036" points="368,355.5759,364,364.5759,368,360.5759,372,364.5759,368,355.5759" style="stroke:#A80036;stroke-width:1.0;"/><path codeLine="60" d="M466.6287,484 C471.6829,484 476.7371,484 481.7912,484 " fill="none" id="NodeParser-backto-AbstractNodeParser" style="stroke:#A80036;stroke-width:1.0;stroke-dasharray:7.0,7.0;"/><polygon fill="none" points="466.5039,490.9999,446.5039,484,466.5039,476.9999,466.5039,490.9999" style="stroke:#A80036;stroke-width:1.0;"/><path codeLine="61" d="M462.7688,540.3703 C378.8584,568.0547 355.4718,574.4917 279,600 C273.2721,601.9106 267.2879,603.9287 261.3346,605.9503 " fill="none" id="AbstractNodeParser-backto-StartParser" style="stroke:#A80036;stroke-width:1.0;"/><polygon fill="none" points="460.7608,533.6615,481.9474,534.0216,465.1605,546.9522,460.7608,533.6615" style="stroke:#A80036;stroke-width:1.0;"/><path codeLine="62" d="M497.1229,549.0098 C460.217,567.2029 422.3945,585.8478 393.6952,599.9953 " fill="none" id="AbstractNodeParser-backto-EndParser" style="stroke:#A80036;stroke-width:1.0;"/><polygon fill="none" points="494.0888,542.7012,515.1227,540.1367,500.279,555.2584,494.0888,542.7012" style="stroke:#A80036;stroke-width:1.0;"/><path codeLine="63" d="M554.5223,553.9791 C536.88,570.5557 519.236,587.1339 505.5478,599.9953 " fill="none" id="AbstractNodeParser-backto-TaskParser" style="stroke:#A80036;stroke-width:1.0;"/><polygon fill="none" points="549.8857,548.7304,569.2545,540.1367,559.4723,558.9332,549.8857,548.7304" style="stroke:#A80036;stroke-width:1.0;"/><path codeLine="64" d="M629,560.4359 C629,574.8032 629,588.8059 629,599.9953 " fill="none" id="AbstractNodeParser-backto-DecisionParser" style="stroke:#A80036;stroke-width:1.0;"/><polygon fill="none" points="622.0001,560.1367,629,540.1367,636.0001,560.1366,622.0001,560.1367" style="stroke:#A80036;stroke-width:1.0;"/><path codeLine="65" d="M702.9779,553.9791 C720.5018,570.5557 738.0273,587.1339 751.6236,599.9953 " fill="none" id="AbstractNodeParser-backto-ForkParser" style="stroke:#A80036;stroke-width:1.0;"/><polygon fill="none" points="698.0635,558.966,688.3445,540.1367,707.6843,548.7954,698.0635,558.966" style="stroke:#A80036;stroke-width:1.0;"/><path codeLine="66" d="M760.0493,549.2915 C796.5411,567.4725 833.887,586.079 862.1805,600.1753 " fill="none" id="AbstractNodeParser-backto-JoinParser" style="stroke:#A80036;stroke-width:1.0;"/><polygon fill="none" points="756.454,555.321,741.6743,540.1367,762.6972,542.7901,756.454,555.321" style="stroke:#A80036;stroke-width:1.0;"/><path codeLine="67" d="M795.4665,537.3302 C863.4624,559.1138 938.5963,583.1842 992.3942,600.4192 " fill="none" id="AbstractNodeParser-backto-SubProcessParser" style="stroke:#A80036;stroke-width:1.0;"/><polygon fill="none" points="792.9454,543.8731,776.0346,531.1049,797.2168,530.5406,792.9454,543.8731" style="stroke:#A80036;stroke-width:1.0;"/></g></svg>