<?xml version="1.0" encoding="UTF-8" standalone="no"?><svg xmlns="http://www.w3.org/2000/svg" xmlns:xlink="http://www.w3.org/1999/xlink" contentStyleType="text/css" height="601px" preserveAspectRatio="none" style="width:1076px;height:601px;background:#FFFFFF;" version="1.1" viewBox="0 0 1076 601" width="1076px" zoomAndPan="magnify"><defs/><g><g id="elem_IHandler"><rect codeLine="2" fill="#F1F1F1" height="64.2969" id="IHandler" rx="2.5" ry="2.5" style="stroke:#181818;stroke-width:0.5;" width="255" x="524.5" y="413.5"/><ellipse cx="619.75" cy="429.5" fill="#B4A7E5" rx="11" ry="11" style="stroke:#181818;stroke-width:1.0;"/><path d="M615.6719,425.2656 L615.6719,423.1094 L623.0625,423.1094 L623.0625,425.2656 L620.5938,425.2656 L620.5938,433.3438 L623.0625,433.3438 L623.0625,435.5 L615.6719,435.5 L615.6719,433.3438 L618.1406,433.3438 L618.1406,425.2656 L615.6719,425.2656 Z " fill="#000000"/><text fill="#000000" font-family="sans-serif" font-size="14" font-style="italic" lengthAdjust="spacing" textLength="56" x="640.25" y="434.3467">IHandler</text><line style="stroke:#181818;stroke-width:0.5;" x1="525.5" x2="778.5" y1="445.5" y2="445.5"/><line style="stroke:#181818;stroke-width:0.5;" x1="525.5" x2="778.5" y1="453.5" y2="453.5"/><ellipse cx="535.5" cy="467.1484" fill="#84BE84" rx="3" ry="3" style="stroke:#038048;stroke-width:1.0;"/><text fill="#000000" font-family="sans-serif" font-size="14" lengthAdjust="spacing" textLength="229" x="544.5" y="470.4951">void handle(Execution execution)</text></g><g id="elem_Execution"><rect codeLine="5" fill="#F1F1F1" height="80.5938" id="Execution" rx="2.5" ry="2.5" style="stroke:#181818;stroke-width:0.5;" width="385" x="258.5" y="264"/><ellipse cx="412.75" cy="280" fill="#ADD1B2" rx="11" ry="11" style="stroke:#181818;stroke-width:1.0;"/><path d="M415.7188,285.6406 Q415.1406,285.9375 414.5,286.0781 Q413.8594,286.2344 413.1563,286.2344 Q410.6563,286.2344 409.3281,284.5938 Q408.0156,282.9375 408.0156,279.8125 Q408.0156,276.6875 409.3281,275.0313 Q410.6563,273.375 413.1563,273.375 Q413.8594,273.375 414.5,273.5313 Q415.1563,273.6875 415.7188,273.9844 L415.7188,276.7031 Q415.0938,276.125 414.5,275.8594 Q413.9063,275.5781 413.2813,275.5781 Q411.9375,275.5781 411.25,276.6563 Q410.5625,277.7188 410.5625,279.8125 Q410.5625,281.9063 411.25,282.9844 Q411.9375,284.0469 413.2813,284.0469 Q413.9063,284.0469 414.5,283.7813 Q415.0938,283.5 415.7188,282.9219 L415.7188,285.6406 Z " fill="#000000"/><text fill="#000000" font-family="sans-serif" font-size="14" lengthAdjust="spacing" textLength="68" x="433.25" y="284.8467">Execution</text><line style="stroke:#181818;stroke-width:0.5;" x1="259.5" x2="642.5" y1="296" y2="296"/><rect fill="none" height="6" style="stroke:#C82930;stroke-width:1.0;" width="6" x="266.5" y="306.6484"/><text fill="#000000" font-family="sans-serif" font-size="14" lengthAdjust="spacing" textLength="289" x="278.5" y="312.9951">ProcessTask processTask; // 当前流程任务</text><rect fill="none" height="6" style="stroke:#C82930;stroke-width:1.0;" width="6" x="266.5" y="322.9453"/><text fill="#000000" font-family="sans-serif" font-size="14" lengthAdjust="spacing" textLength="359" x="278.5" y="329.292">List&lt;ProcessTask&gt; processTaskList; // 所有流程任务</text><line style="stroke:#181818;stroke-width:0.5;" x1="259.5" x2="642.5" y1="336.5938" y2="336.5938"/></g><g id="elem_BaseModel"><rect codeLine="10" fill="#F1F1F1" height="64.2969" id="BaseModel" rx="2.5" ry="2.5" style="stroke:#181818;stroke-width:0.5;" width="349" x="678.5" y="272.5"/><ellipse cx="810.25" cy="288.5" fill="#ADD1B2" rx="11" ry="11" style="stroke:#181818;stroke-width:1.0;"/><path d="M813.2188,294.1406 Q812.6406,294.4375 812,294.5781 Q811.3594,294.7344 810.6563,294.7344 Q808.1563,294.7344 806.8281,293.0938 Q805.5156,291.4375 805.5156,288.3125 Q805.5156,285.1875 806.8281,283.5313 Q808.1563,281.875 810.6563,281.875 Q811.3594,281.875 812,282.0313 Q812.6563,282.1875 813.2188,282.4844 L813.2188,285.2031 Q812.5938,284.625 812,284.3594 Q811.4063,284.0781 810.7813,284.0781 Q809.4375,284.0781 808.75,285.1563 Q808.0625,286.2188 808.0625,288.3125 Q808.0625,290.4063 808.75,291.4844 Q809.4375,292.5469 810.7813,292.5469 Q811.4063,292.5469 812,292.2813 Q812.5938,292 813.2188,291.4219 L813.2188,294.1406 Z " fill="#000000"/><text fill="#000000" font-family="sans-serif" font-size="14" lengthAdjust="spacing" textLength="77" x="830.75" y="293.3467">BaseModel</text><line style="stroke:#181818;stroke-width:0.5;" x1="679.5" x2="1026.5" y1="304.5" y2="304.5"/><line style="stroke:#181818;stroke-width:0.5;" x1="679.5" x2="1026.5" y1="312.5" y2="312.5"/><polygon fill="#FFFF44" points="689.5,321.1484,693.5,325.1484,689.5,329.1484,685.5,325.1484" style="stroke:#B38D22;stroke-width:1.0;"/><text fill="#000000" font-family="sans-serif" font-size="14" lengthAdjust="spacing" textLength="323" x="698.5" y="329.4951">void fire(IHandler handler, Execution execution)</text></g><g id="elem_CreateTaskHandler"><rect codeLine="13" fill="#F1F1F1" height="80.5938" id="CreateTaskHandler" rx="2.5" ry="2.5" style="stroke:#181818;stroke-width:0.5;" width="336" x="153" y="405"/><ellipse cx="250.75" cy="421" fill="#ADD1B2" rx="11" ry="11" style="stroke:#181818;stroke-width:1.0;"/><path d="M253.7188,426.6406 Q253.1406,426.9375 252.5,427.0781 Q251.8594,427.2344 251.1563,427.2344 Q248.6563,427.2344 247.3281,425.5938 Q246.0156,423.9375 246.0156,420.8125 Q246.0156,417.6875 247.3281,416.0313 Q248.6563,414.375 251.1563,414.375 Q251.8594,414.375 252.5,414.5313 Q253.1563,414.6875 253.7188,414.9844 L253.7188,417.7031 Q253.0938,417.125 252.5,416.8594 Q251.9063,416.5781 251.2813,416.5781 Q249.9375,416.5781 249.25,417.6563 Q248.5625,418.7188 248.5625,420.8125 Q248.5625,422.9063 249.25,423.9844 Q249.9375,425.0469 251.2813,425.0469 Q251.9063,425.0469 252.5,424.7813 Q253.0938,424.5 253.7188,423.9219 L253.7188,426.6406 Z " fill="#000000"/><text fill="#000000" font-family="sans-serif" font-size="14" lengthAdjust="spacing" textLength="132" x="271.25" y="425.8467">CreateTaskHandler</text><line style="stroke:#181818;stroke-width:0.5;" x1="154" x2="488" y1="437" y2="437"/><rect fill="none" height="6" style="stroke:#C82930;stroke-width:1.0;" width="6" x="161" y="447.6484"/><text fill="#000000" font-family="sans-serif" font-size="14" lengthAdjust="spacing" textLength="150" x="173" y="453.9951">TaskModel taskModel</text><line style="stroke:#181818;stroke-width:0.5;" x1="154" x2="488" y1="461.2969" y2="461.2969"/><ellipse cx="164" cy="474.9453" fill="#84BE84" rx="3" ry="3" style="stroke:#038048;stroke-width:1.0;"/><text fill="#000000" font-family="sans-serif" font-size="14" lengthAdjust="spacing" textLength="310" x="173" y="478.292">CreateTaskHandler(TaskModel taskModel){}</text></g><g id="elem_ProcessTask"><rect codeLine="17" fill="#F1F1F1" height="113.1875" id="ProcessTask" rx="2.5" ry="2.5" style="stroke:#181818;stroke-width:0.5;" width="264" x="211" y="91"/><ellipse cx="294.25" cy="107" fill="#ADD1B2" rx="11" ry="11" style="stroke:#181818;stroke-width:1.0;"/><path d="M297.2188,112.6406 Q296.6406,112.9375 296,113.0781 Q295.3594,113.2344 294.6563,113.2344 Q292.1563,113.2344 290.8281,111.5938 Q289.5156,109.9375 289.5156,106.8125 Q289.5156,103.6875 290.8281,102.0313 Q292.1563,100.375 294.6563,100.375 Q295.3594,100.375 296,100.5313 Q296.6563,100.6875 297.2188,100.9844 L297.2188,103.7031 Q296.5938,103.125 296,102.8594 Q295.4063,102.5781 294.7813,102.5781 Q293.4375,102.5781 292.75,103.6563 Q292.0625,104.7188 292.0625,106.8125 Q292.0625,108.9063 292.75,109.9844 Q293.4375,111.0469 294.7813,111.0469 Q295.4063,111.0469 296,110.7813 Q296.5938,110.5 297.2188,109.9219 L297.2188,112.6406 Z " fill="#000000"/><text fill="#000000" font-family="sans-serif" font-size="14" lengthAdjust="spacing" textLength="89" x="314.75" y="111.8467">ProcessTask</text><line style="stroke:#181818;stroke-width:0.5;" x1="212" x2="474" y1="123" y2="123"/><rect fill="none" height="6" style="stroke:#C82930;stroke-width:1.0;" width="6" x="219" y="133.6484"/><text fill="#000000" font-family="sans-serif" font-size="14" lengthAdjust="spacing" textLength="115" x="231" y="139.9951">Long id; // 任务ID</text><rect fill="none" height="6" style="stroke:#C82930;stroke-width:1.0;" width="6" x="219" y="149.9453"/><text fill="#000000" font-family="sans-serif" font-size="14" lengthAdjust="spacing" textLength="192" x="231" y="156.292">String taskName; // 任务名称</text><rect fill="none" height="6" style="stroke:#C82930;stroke-width:1.0;" width="6" x="219" y="166.2422"/><text fill="#000000" font-family="sans-serif" font-size="14" lengthAdjust="spacing" textLength="238" x="231" y="172.5889">String displayName; // 任务显示名称</text><rect fill="none" height="6" style="stroke:#C82930;stroke-width:1.0;" width="6" x="219" y="182.5391"/><text fill="#000000" font-family="sans-serif" font-size="14" lengthAdjust="spacing" textLength="197" x="231" y="188.8857">Integer taskState; // 任务状态</text><line style="stroke:#181818;stroke-width:0.5;" x1="212" x2="474" y1="196.1875" y2="196.1875"/></g><g id="elem_TaskModel"><rect codeLine="23" fill="#F1F1F1" height="48" id="TaskModel" rx="2.5" ry="2.5" style="stroke:#181818;stroke-width:0.5;" width="107" x="267.5" y="546"/><ellipse cx="282.5" cy="562" fill="#ADD1B2" rx="11" ry="11" style="stroke:#181818;stroke-width:1.0;"/><path d="M285.4688,567.6406 Q284.8906,567.9375 284.25,568.0781 Q283.6094,568.2344 282.9063,568.2344 Q280.4063,568.2344 279.0781,566.5938 Q277.7656,564.9375 277.7656,561.8125 Q277.7656,558.6875 279.0781,557.0313 Q280.4063,555.375 282.9063,555.375 Q283.6094,555.375 284.25,555.5313 Q284.9063,555.6875 285.4688,555.9844 L285.4688,558.7031 Q284.8438,558.125 284.25,557.8594 Q283.6563,557.5781 283.0313,557.5781 Q281.6875,557.5781 281,558.6563 Q280.3125,559.7188 280.3125,561.8125 Q280.3125,563.9063 281,564.9844 Q281.6875,566.0469 283.0313,566.0469 Q283.6563,566.0469 284.25,565.7813 Q284.8438,565.5 285.4688,564.9219 L285.4688,567.6406 Z " fill="#000000"/><text fill="#000000" font-family="sans-serif" font-size="14" lengthAdjust="spacing" textLength="75" x="296.5" y="566.8467">TaskModel</text><line style="stroke:#181818;stroke-width:0.5;" x1="268.5" x2="373.5" y1="578" y2="578"/><line style="stroke:#181818;stroke-width:0.5;" x1="268.5" x2="373.5" y1="586" y2="586"/></g><g id="elem_GMN16"><path d="M570,557.5 L570,582.6328 A0,0 0 0 0 570,582.6328 L734,582.6328 A0,0 0 0 0 734,582.6328 L734,567.5 L724,557.5 L656,557.5 L652,477.729 L648,557.5 L570,557.5 A0,0 0 0 0 570,557.5 " fill="#FEFFDD" style="stroke:#181818;stroke-width:0.5;"/><path d="M724,557.5 L724,567.5 L734,567.5 L724,557.5 " fill="#FEFFDD" style="stroke:#181818;stroke-width:0.5;"/><text fill="#000000" font-family="sans-serif" font-size="13" lengthAdjust="spacing" textLength="143" x="576" y="574.5669">流程各模型操作处理接口</text></g><path d="M814.5,428 L814.5,436.5664 L773.5,465.6484 L814.5,444.5664 L814.5,453.1328 A0,0 0 0 0 814.5,453.1328 L1069.5,453.1328 A0,0 0 0 0 1069.5,453.1328 L1069.5,438 L1059.5,428 L814.5,428 A0,0 0 0 0 814.5,428 " fill="#FEFFDD" style="stroke:#181818;stroke-width:0.5;"/><path d="M1059.5,428 L1059.5,438 L1069.5,438 L1059.5,428 " fill="#FEFFDD" style="stroke:#181818;stroke-width:0.5;"/><text fill="#000000" font-family="sans-serif" font-size="13" lengthAdjust="spacing" textLength="234" x="820.5" y="445.0669">子类需要实现的方法，来处理具体的操作</text><g id="elem_GMN21"><path d="M510.5,135 L510.5,160.1328 A0,0 0 0 0 510.5,160.1328 L547.807,160.1328 L478.995,263.691 L555.807,160.1328 L609.5,160.1328 A0,0 0 0 0 609.5,160.1328 L609.5,145 L599.5,135 L510.5,135 A0,0 0 0 0 510.5,135 " fill="#FEFFDD" style="stroke:#181818;stroke-width:0.5;"/><path d="M599.5,135 L599.5,145 L609.5,145 L599.5,135 " fill="#FEFFDD" style="stroke:#181818;stroke-width:0.5;"/><text fill="#000000" font-family="sans-serif" font-size="13" lengthAdjust="spacing" textLength="78" x="516.5" y="152.0669">执行对象参数</text></g><g id="elem_GMN24"><path d="M816.5,135 L816.5,160.1328 A0,0 0 0 0 816.5,160.1328 L849,160.1328 L853,272.406 L857,160.1328 L889.5,160.1328 A0,0 0 0 0 889.5,160.1328 L889.5,145 L879.5,135 L816.5,135 A0,0 0 0 0 816.5,135 " fill="#FEFFDD" style="stroke:#181818;stroke-width:0.5;"/><path d="M879.5,135 L879.5,145 L889.5,145 L879.5,135 " fill="#FEFFDD" style="stroke:#181818;stroke-width:0.5;"/><text fill="#000000" font-family="sans-serif" font-size="13" lengthAdjust="spacing" textLength="52" x="822.5" y="152.0669">基础模型</text></g><g id="elem_GMN27"><path d="M6,433 L6,458.1328 A0,0 0 0 0 6,458.1328 L118,458.1328 A0,0 0 0 0 118,458.1328 L118,451 L152.619,445.5 L118,443 L118,443 L108,433 L6,433 A0,0 0 0 0 6,433 " fill="#FEFFDD" style="stroke:#181818;stroke-width:0.5;"/><path d="M108,433 L108,443 L118,443 L108,433 " fill="#FEFFDD" style="stroke:#181818;stroke-width:0.5;"/><text fill="#000000" font-family="sans-serif" font-size="13" lengthAdjust="spacing" textLength="91" x="12" y="450.0669">创建任务处理器</text></g><g id="elem_GMN30"><path d="M293.5,6 L293.5,31.1328 A0,0 0 0 0 293.5,31.1328 L339,31.1328 L343,90.865 L347,31.1328 L392.5,31.1328 A0,0 0 0 0 392.5,31.1328 L392.5,16 L382.5,6 L293.5,6 A0,0 0 0 0 293.5,6 " fill="#FEFFDD" style="stroke:#181818;stroke-width:0.5;"/><path d="M382.5,6 L382.5,16 L392.5,16 L382.5,6 " fill="#FEFFDD" style="stroke:#181818;stroke-width:0.5;"/><text fill="#000000" font-family="sans-serif" font-size="13" lengthAdjust="spacing" textLength="78" x="299.5" y="23.0669">流程任务实体</text></g><g id="link_Execution_IHandler"><path codeLine="27" d="M512.779,348.223 C543.224,369.277 579.266,394.201 607.049,413.415 " fill="none" id="Execution-backto-IHandler" style="stroke:#181818;stroke-width:1.0;stroke-dasharray:7.0,7.0;"/><polygon fill="#181818" points="508.33,345.146,513.4591,353.5539,512.4431,347.989,518.0079,346.973,508.33,345.146" style="stroke:#181818;stroke-width:1.0;"/></g><g id="link_BaseModel_IHandler"><path codeLine="28" d="M808.142,336.521 C776.473,358.422 734.04,387.766 701.403,410.336 " fill="none" id="BaseModel-to-IHandler" style="stroke:#181818;stroke-width:1.0;stroke-dasharray:7.0,7.0;"/><polygon fill="#181818" points="697.068,413.333,706.7455,411.5038,701.1804,410.489,702.1951,404.9239,697.068,413.333" style="stroke:#181818;stroke-width:1.0;"/></g><g id="link_Execution_BaseModel"><path codeLine="29" d="M648.912,304.5 C658.773,304.5 668.633,304.5 678.494,304.5 " fill="none" id="Execution-backto-BaseModel" style="stroke:#181818;stroke-width:1.0;stroke-dasharray:7.0,7.0;"/><polygon fill="#181818" points="643.756,304.5,652.756,308.5,648.756,304.5,652.756,300.5,643.756,304.5" style="stroke:#181818;stroke-width:1.0;"/></g><g id="link_CreateTaskHandler_IHandler"><path codeLine="30" d="M489.086,445.5 C494.145,445.5 499.203,445.5 504.262,445.5 " fill="none" id="CreateTaskHandler-to-IHandler" style="stroke:#181818;stroke-width:1.0;stroke-dasharray:7.0,7.0;"/><polygon fill="none" points="504.405,438.5,524.405,445.5,504.405,452.5,504.405,438.5" style="stroke:#181818;stroke-width:1.0;"/></g><g id="link_ProcessTask_Execution"><path codeLine="31" d="M388.5445,213.8672 C388.5445,213.8672 407.357,240.865 415.848,253.051 " fill="none" id="ProcessTask-Execution" style="stroke:#181818;stroke-width:1.0;"/><polygon fill="#181818" points="423.417,263.914,421.5536,254.243,420.5585,259.8117,414.9899,258.8166,423.417,263.914" style="stroke:#181818;stroke-width:1.0;"/><line style="stroke:#181818;stroke-width:1.0;" x1="420.5585" x2="415.9855" y1="259.8117" y2="253.2475"/><polygon fill="none" points="381.685,204.021,381.8327,211.2306,388.5445,213.8672,388.3968,206.6576,381.685,204.021" style="stroke:#181818;stroke-width:1.0;"/></g><g id="link_CreateTaskHandler_TaskModel"><path codeLine="32" d="M321,486.272 C321,503.9724 321,524.4124 321,540.5465 " fill="none" id="CreateTaskHandler-to-TaskModel" style="stroke:#181818;stroke-width:1.0;stroke-dasharray:7.0,7.0;"/><polygon fill="#181818" points="321,545.8428,325,536.8428,321,540.8428,317,536.8428,321,545.8428" style="stroke:#181818;stroke-width:1.0;"/></g></g></svg>