<?xml version="1.0" encoding="UTF-8" standalone="no"?><svg xmlns="http://www.w3.org/2000/svg" xmlns:xlink="http://www.w3.org/1999/xlink" contentStyleType="text/css" height="657px" preserveAspectRatio="none" style="width:783px;height:657px;background:#FFFFFF;" version="1.1" viewBox="0 0 783 657" width="783px" zoomAndPan="magnify"><defs/><g><g id="elem_IHandler"><rect codeLine="2" fill="#F1F1F1" height="64.2969" id="IHandler" rx="2.5" ry="2.5" style="stroke:#181818;stroke-width:0.5;" width="255" x="273" y="337"/><ellipse cx="368.25" cy="353" fill="#B4A7E5" rx="11" ry="11" style="stroke:#181818;stroke-width:1.0;"/><path d="M364.1719,348.7656 L364.1719,346.6094 L371.5625,346.6094 L371.5625,348.7656 L369.0938,348.7656 L369.0938,356.8438 L371.5625,356.8438 L371.5625,359 L364.1719,359 L364.1719,356.8438 L366.6406,356.8438 L366.6406,348.7656 L364.1719,348.7656 Z " fill="#000000"/><text fill="#000000" font-family="sans-serif" font-size="14" font-style="italic" lengthAdjust="spacing" textLength="56" x="388.75" y="357.8467">IHandler</text><line style="stroke:#181818;stroke-width:0.5;" x1="274" x2="527" y1="369" y2="369"/><line style="stroke:#181818;stroke-width:0.5;" x1="274" x2="527" y1="377" y2="377"/><ellipse cx="284" cy="390.6484" fill="#84BE84" rx="3" ry="3" style="stroke:#038048;stroke-width:1.0;"/><text fill="#000000" font-family="sans-serif" font-size="14" lengthAdjust="spacing" textLength="229" x="293" y="393.9951">void handle(Execution execution)</text></g><g id="elem_Execution"><rect codeLine="5" fill="#F1F1F1" height="96.8906" id="Execution" rx="2.5" ry="2.5" style="stroke:#181818;stroke-width:0.5;" width="385" x="7" y="180"/><ellipse cx="161.25" cy="196" fill="#ADD1B2" rx="11" ry="11" style="stroke:#181818;stroke-width:1.0;"/><path d="M164.2188,201.6406 Q163.6406,201.9375 163,202.0781 Q162.3594,202.2344 161.6563,202.2344 Q159.1563,202.2344 157.8281,200.5938 Q156.5156,198.9375 156.5156,195.8125 Q156.5156,192.6875 157.8281,191.0313 Q159.1563,189.375 161.6563,189.375 Q162.3594,189.375 163,189.5313 Q163.6563,189.6875 164.2188,189.9844 L164.2188,192.7031 Q163.5938,192.125 163,191.8594 Q162.4063,191.5781 161.7813,191.5781 Q160.4375,191.5781 159.75,192.6563 Q159.0625,193.7188 159.0625,195.8125 Q159.0625,197.9063 159.75,198.9844 Q160.4375,200.0469 161.7813,200.0469 Q162.4063,200.0469 163,199.7813 Q163.5938,199.5 164.2188,198.9219 L164.2188,201.6406 Z " fill="#000000"/><text fill="#000000" font-family="sans-serif" font-size="14" lengthAdjust="spacing" textLength="68" x="181.75" y="200.8467">Execution</text><line style="stroke:#181818;stroke-width:0.5;" x1="8" x2="391" y1="212" y2="212"/><rect fill="none" height="6" style="stroke:#C82930;stroke-width:1.0;" width="6" x="15" y="222.6484"/><text fill="#000000" font-family="sans-serif" font-size="14" lengthAdjust="spacing" textLength="217" x="27" y="228.9951">boolean isMerged; // 是否可合并</text><rect fill="none" height="6" style="stroke:#C82930;stroke-width:1.0;" width="6" x="15" y="238.9453"/><text fill="#000000" font-family="sans-serif" font-size="14" lengthAdjust="spacing" textLength="289" x="27" y="245.292">ProcessTask processTask; // 当前流程任务</text><rect fill="none" height="6" style="stroke:#C82930;stroke-width:1.0;" width="6" x="15" y="255.2422"/><text fill="#000000" font-family="sans-serif" font-size="14" lengthAdjust="spacing" textLength="359" x="27" y="261.5889">List&lt;ProcessTask&gt; processTaskList; // 所有流程任务</text><line style="stroke:#181818;stroke-width:0.5;" x1="8" x2="391" y1="268.8906" y2="268.8906"/></g><g id="elem_BaseModel"><rect codeLine="11" fill="#F1F1F1" height="64.2969" id="BaseModel" rx="2.5" ry="2.5" style="stroke:#181818;stroke-width:0.5;" width="349" x="427" y="196.5"/><ellipse cx="558.75" cy="212.5" fill="#ADD1B2" rx="11" ry="11" style="stroke:#181818;stroke-width:1.0;"/><path d="M561.7188,218.1406 Q561.1406,218.4375 560.5,218.5781 Q559.8594,218.7344 559.1563,218.7344 Q556.6563,218.7344 555.3281,217.0938 Q554.0156,215.4375 554.0156,212.3125 Q554.0156,209.1875 555.3281,207.5313 Q556.6563,205.875 559.1563,205.875 Q559.8594,205.875 560.5,206.0313 Q561.1563,206.1875 561.7188,206.4844 L561.7188,209.2031 Q561.0938,208.625 560.5,208.3594 Q559.9063,208.0781 559.2813,208.0781 Q557.9375,208.0781 557.25,209.1563 Q556.5625,210.2188 556.5625,212.3125 Q556.5625,214.4063 557.25,215.4844 Q557.9375,216.5469 559.2813,216.5469 Q559.9063,216.5469 560.5,216.2813 Q561.0938,216 561.7188,215.4219 L561.7188,218.1406 Z " fill="#000000"/><text fill="#000000" font-family="sans-serif" font-size="14" lengthAdjust="spacing" textLength="77" x="579.25" y="217.3467">BaseModel</text><line style="stroke:#181818;stroke-width:0.5;" x1="428" x2="775" y1="228.5" y2="228.5"/><line style="stroke:#181818;stroke-width:0.5;" x1="428" x2="775" y1="236.5" y2="236.5"/><polygon fill="#FFFF44" points="438,245.1484,442,249.1484,438,253.1484,434,249.1484" style="stroke:#B38D22;stroke-width:1.0;"/><text fill="#000000" font-family="sans-serif" font-size="14" lengthAdjust="spacing" textLength="323" x="447" y="253.4951">void fire(IHandler handler, Execution execution)</text></g><g id="elem_CreateTaskHandler"><rect codeLine="14" fill="#F1F1F1" height="80.5938" id="CreateTaskHandler" rx="2.5" ry="2.5" style="stroke:#181818;stroke-width:0.5;" width="336" x="47.5" y="461"/><ellipse cx="145.25" cy="477" fill="#ADD1B2" rx="11" ry="11" style="stroke:#181818;stroke-width:1.0;"/><path d="M148.2188,482.6406 Q147.6406,482.9375 147,483.0781 Q146.3594,483.2344 145.6563,483.2344 Q143.1563,483.2344 141.8281,481.5938 Q140.5156,479.9375 140.5156,476.8125 Q140.5156,473.6875 141.8281,472.0313 Q143.1563,470.375 145.6563,470.375 Q146.3594,470.375 147,470.5313 Q147.6563,470.6875 148.2188,470.9844 L148.2188,473.7031 Q147.5938,473.125 147,472.8594 Q146.4063,472.5781 145.7813,472.5781 Q144.4375,472.5781 143.75,473.6563 Q143.0625,474.7188 143.0625,476.8125 Q143.0625,478.9063 143.75,479.9844 Q144.4375,481.0469 145.7813,481.0469 Q146.4063,481.0469 147,480.7813 Q147.5938,480.5 148.2188,479.9219 L148.2188,482.6406 Z " fill="#000000"/><text fill="#000000" font-family="sans-serif" font-size="14" lengthAdjust="spacing" textLength="132" x="165.75" y="481.8467">CreateTaskHandler</text><line style="stroke:#181818;stroke-width:0.5;" x1="48.5" x2="382.5" y1="493" y2="493"/><rect fill="none" height="6" style="stroke:#C82930;stroke-width:1.0;" width="6" x="55.5" y="503.6484"/><text fill="#000000" font-family="sans-serif" font-size="14" lengthAdjust="spacing" textLength="150" x="67.5" y="509.9951">TaskModel taskModel</text><line style="stroke:#181818;stroke-width:0.5;" x1="48.5" x2="382.5" y1="517.2969" y2="517.2969"/><ellipse cx="58.5" cy="530.9453" fill="#84BE84" rx="3" ry="3" style="stroke:#038048;stroke-width:1.0;"/><text fill="#000000" font-family="sans-serif" font-size="14" lengthAdjust="spacing" textLength="310" x="67.5" y="534.292">CreateTaskHandler(TaskModel taskModel){}</text></g><g id="elem_MergeBranchHandler"><rect codeLine="18" fill="#F1F1F1" height="80.5938" id="MergeBranchHandler" rx="2.5" ry="2.5" style="stroke:#181818;stroke-width:0.5;" width="336" x="418.5" y="461"/><ellipse cx="509.25" cy="477" fill="#ADD1B2" rx="11" ry="11" style="stroke:#181818;stroke-width:1.0;"/><path d="M512.2188,482.6406 Q511.6406,482.9375 511,483.0781 Q510.3594,483.2344 509.6563,483.2344 Q507.1563,483.2344 505.8281,481.5938 Q504.5156,479.9375 504.5156,476.8125 Q504.5156,473.6875 505.8281,472.0313 Q507.1563,470.375 509.6563,470.375 Q510.3594,470.375 511,470.5313 Q511.6563,470.6875 512.2188,470.9844 L512.2188,473.7031 Q511.5938,473.125 511,472.8594 Q510.4063,472.5781 509.7813,472.5781 Q508.4375,472.5781 507.75,473.6563 Q507.0625,474.7188 507.0625,476.8125 Q507.0625,478.9063 507.75,479.9844 Q508.4375,481.0469 509.7813,481.0469 Q510.4063,481.0469 511,480.7813 Q511.5938,480.5 512.2188,479.9219 L512.2188,482.6406 Z " fill="#000000"/><text fill="#000000" font-family="sans-serif" font-size="14" lengthAdjust="spacing" textLength="146" x="529.75" y="481.8467">MergeBranchHandler</text><line style="stroke:#181818;stroke-width:0.5;" x1="419.5" x2="753.5" y1="493" y2="493"/><rect fill="none" height="6" style="stroke:#C82930;stroke-width:1.0;" width="6" x="426.5" y="503.6484"/><text fill="#000000" font-family="sans-serif" font-size="14" lengthAdjust="spacing" textLength="136" x="438.5" y="509.9951">JoinModel joinModel</text><line style="stroke:#181818;stroke-width:0.5;" x1="419.5" x2="753.5" y1="517.2969" y2="517.2969"/><ellipse cx="429.5" cy="530.9453" fill="#84BE84" rx="3" ry="3" style="stroke:#038048;stroke-width:1.0;"/><text fill="#000000" font-family="sans-serif" font-size="14" lengthAdjust="spacing" textLength="310" x="438.5" y="534.292">MergeBranchHandler(JoinModel joinModel){}</text></g><g id="elem_ProcessTask"><rect codeLine="22" fill="#F1F1F1" height="113.1875" id="ProcessTask" rx="2.5" ry="2.5" style="stroke:#181818;stroke-width:0.5;" width="264" x="67.5" y="7"/><ellipse cx="150.75" cy="23" fill="#ADD1B2" rx="11" ry="11" style="stroke:#181818;stroke-width:1.0;"/><path d="M153.7188,28.6406 Q153.1406,28.9375 152.5,29.0781 Q151.8594,29.2344 151.1563,29.2344 Q148.6563,29.2344 147.3281,27.5938 Q146.0156,25.9375 146.0156,22.8125 Q146.0156,19.6875 147.3281,18.0313 Q148.6563,16.375 151.1563,16.375 Q151.8594,16.375 152.5,16.5313 Q153.1563,16.6875 153.7188,16.9844 L153.7188,19.7031 Q153.0938,19.125 152.5,18.8594 Q151.9063,18.5781 151.2813,18.5781 Q149.9375,18.5781 149.25,19.6563 Q148.5625,20.7188 148.5625,22.8125 Q148.5625,24.9063 149.25,25.9844 Q149.9375,27.0469 151.2813,27.0469 Q151.9063,27.0469 152.5,26.7813 Q153.0938,26.5 153.7188,25.9219 L153.7188,28.6406 Z " fill="#000000"/><text fill="#000000" font-family="sans-serif" font-size="14" lengthAdjust="spacing" textLength="89" x="171.25" y="27.8467">ProcessTask</text><line style="stroke:#181818;stroke-width:0.5;" x1="68.5" x2="330.5" y1="39" y2="39"/><rect fill="none" height="6" style="stroke:#C82930;stroke-width:1.0;" width="6" x="75.5" y="49.6484"/><text fill="#000000" font-family="sans-serif" font-size="14" lengthAdjust="spacing" textLength="115" x="87.5" y="55.9951">Long id; // 任务ID</text><rect fill="none" height="6" style="stroke:#C82930;stroke-width:1.0;" width="6" x="75.5" y="65.9453"/><text fill="#000000" font-family="sans-serif" font-size="14" lengthAdjust="spacing" textLength="192" x="87.5" y="72.292">String taskName; // 任务名称</text><rect fill="none" height="6" style="stroke:#C82930;stroke-width:1.0;" width="6" x="75.5" y="82.2422"/><text fill="#000000" font-family="sans-serif" font-size="14" lengthAdjust="spacing" textLength="238" x="87.5" y="88.5889">String displayName; // 任务显示名称</text><rect fill="none" height="6" style="stroke:#C82930;stroke-width:1.0;" width="6" x="75.5" y="98.5391"/><text fill="#000000" font-family="sans-serif" font-size="14" lengthAdjust="spacing" textLength="197" x="87.5" y="104.8857">Integer taskState; // 任务状态</text><line style="stroke:#181818;stroke-width:0.5;" x1="68.5" x2="330.5" y1="112.1875" y2="112.1875"/></g><g id="elem_TaskModel"><rect codeLine="28" fill="#F1F1F1" height="48" id="TaskModel" rx="2.5" ry="2.5" style="stroke:#181818;stroke-width:0.5;" width="107" x="162" y="602"/><ellipse cx="177" cy="618" fill="#ADD1B2" rx="11" ry="11" style="stroke:#181818;stroke-width:1.0;"/><path d="M179.9688,623.6406 Q179.3906,623.9375 178.75,624.0781 Q178.1094,624.2344 177.4063,624.2344 Q174.9063,624.2344 173.5781,622.5938 Q172.2656,620.9375 172.2656,617.8125 Q172.2656,614.6875 173.5781,613.0313 Q174.9063,611.375 177.4063,611.375 Q178.1094,611.375 178.75,611.5313 Q179.4063,611.6875 179.9688,611.9844 L179.9688,614.7031 Q179.3438,614.125 178.75,613.8594 Q178.1563,613.5781 177.5313,613.5781 Q176.1875,613.5781 175.5,614.6563 Q174.8125,615.7188 174.8125,617.8125 Q174.8125,619.9063 175.5,620.9844 Q176.1875,622.0469 177.5313,622.0469 Q178.1563,622.0469 178.75,621.7813 Q179.3438,621.5 179.9688,620.9219 L179.9688,623.6406 Z " fill="#000000"/><text fill="#000000" font-family="sans-serif" font-size="14" lengthAdjust="spacing" textLength="75" x="191" y="622.8467">TaskModel</text><line style="stroke:#181818;stroke-width:0.5;" x1="163" x2="268" y1="634" y2="634"/><line style="stroke:#181818;stroke-width:0.5;" x1="163" x2="268" y1="642" y2="642"/></g><g id="elem_JoinModel"><rect codeLine="31" fill="#F1F1F1" height="48" id="JoinModel" rx="2.5" ry="2.5" style="stroke:#181818;stroke-width:0.5;" width="98" x="537.5" y="602"/><ellipse cx="552.5" cy="618" fill="#ADD1B2" rx="11" ry="11" style="stroke:#181818;stroke-width:1.0;"/><path d="M555.4688,623.6406 Q554.8906,623.9375 554.25,624.0781 Q553.6094,624.2344 552.9063,624.2344 Q550.4063,624.2344 549.0781,622.5938 Q547.7656,620.9375 547.7656,617.8125 Q547.7656,614.6875 549.0781,613.0313 Q550.4063,611.375 552.9063,611.375 Q553.6094,611.375 554.25,611.5313 Q554.9063,611.6875 555.4688,611.9844 L555.4688,614.7031 Q554.8438,614.125 554.25,613.8594 Q553.6563,613.5781 553.0313,613.5781 Q551.6875,613.5781 551,614.6563 Q550.3125,615.7188 550.3125,617.8125 Q550.3125,619.9063 551,620.9844 Q551.6875,622.0469 553.0313,622.0469 Q553.6563,622.0469 554.25,621.7813 Q554.8438,621.5 555.4688,620.9219 L555.4688,623.6406 Z " fill="#000000"/><text fill="#000000" font-family="sans-serif" font-size="14" lengthAdjust="spacing" textLength="66" x="566.5" y="622.8467">JoinModel</text><line style="stroke:#181818;stroke-width:0.5;" x1="538.5" x2="634.5" y1="634" y2="634"/><line style="stroke:#181818;stroke-width:0.5;" x1="538.5" x2="634.5" y1="642" y2="642"/></g><g id="link_Execution_IHandler"><path codeLine="35" d="M273.078,280.199 C300.689,299.224 331.226,320.267 355.484,336.981 " fill="none" id="Execution-backto-IHandler" style="stroke:#181818;stroke-width:1.0;stroke-dasharray:7.0,7.0;"/><polygon fill="#181818" points="268.673,277.164,273.8141,285.5645,272.7901,280.0011,278.3535,278.9771,268.673,277.164" style="stroke:#181818;stroke-width:1.0;"/></g><g id="link_BaseModel_IHandler"><path codeLine="36" d="M556.392,260.582 C524.822,282.336 482.647,311.396 450.125,333.805 " fill="none" id="BaseModel-to-IHandler" style="stroke:#181818;stroke-width:1.0;stroke-dasharray:7.0,7.0;"/><polygon fill="#181818" points="445.805,336.782,455.4855,334.9689,449.9221,333.9449,450.9461,328.3815,445.805,336.782" style="stroke:#181818;stroke-width:1.0;"/></g><g id="link_Execution_BaseModel"><path codeLine="37" d="M397.412,228.5 C407.273,228.5 417.133,228.5 426.994,228.5 " fill="none" id="Execution-backto-BaseModel" style="stroke:#181818;stroke-width:1.0;stroke-dasharray:7.0,7.0;"/><polygon fill="#181818" points="392.256,228.5,401.256,232.5,397.256,228.5,401.256,224.5,392.256,228.5" style="stroke:#181818;stroke-width:1.0;"/></g><g id="link_IHandler_CreateTaskHandler"><path codeLine="38" d="M339.696,412.892 C317.805,428.334 293.219,445.676 271.735,460.832 " fill="none" id="IHandler-backto-CreateTaskHandler" style="stroke:#181818;stroke-width:1.0;stroke-dasharray:7.0,7.0;"/><polygon fill="none" points="335.81,407.066,356.188,401.258,343.88,418.507,335.81,407.066" style="stroke:#181818;stroke-width:1.0;"/></g><g id="link_IHandler_MergeBranchHandler"><path codeLine="39" d="M461.633,412.892 C483.642,428.334 508.361,445.676 529.961,460.832 " fill="none" id="IHandler-backto-MergeBranchHandler" style="stroke:#181818;stroke-width:1.0;stroke-dasharray:7.0,7.0;"/><polygon fill="none" points="457.403,418.475,445.052,401.258,465.444,407.015,457.403,418.475" style="stroke:#181818;stroke-width:1.0;"/></g><g id="link_ProcessTask_Execution"><path codeLine="40" d="M199.5,132.139 C199.5,132.139 199.5,155.915 199.5,166.908 " fill="none" id="ProcessTask-Execution" style="stroke:#181818;stroke-width:1.0;"/><polygon fill="#181818" points="199.5,179.988,203.5,170.988,199.5,174.988,195.5,170.988,199.5,179.988" style="stroke:#181818;stroke-width:1.0;"/><line style="stroke:#181818;stroke-width:1.0;" x1="199.5" x2="199.5" y1="174.988" y2="166.988"/><polygon fill="none" points="199.5,120.139,195.5,126.139,199.5,132.139,203.5,126.139,199.5,120.139" style="stroke:#181818;stroke-width:1.0;"/></g><g id="link_CreateTaskHandler_TaskModel"><path codeLine="41" d="M215.5,542.272 C215.5,559.9724 215.5,580.4124 215.5,596.5465 " fill="none" id="CreateTaskHandler-to-TaskModel" style="stroke:#181818;stroke-width:1.0;stroke-dasharray:7.0,7.0;"/><polygon fill="#181818" points="215.5,601.8428,219.5,592.8428,215.5,596.8428,211.5,592.8428,215.5,601.8428" style="stroke:#181818;stroke-width:1.0;"/></g><g id="link_MergeBranchHandler_JoinModel"><path codeLine="42" d="M586.5,542.272 C586.5,559.9724 586.5,580.4124 586.5,596.5465 " fill="none" id="MergeBranchHandler-to-JoinModel" style="stroke:#181818;stroke-width:1.0;stroke-dasharray:7.0,7.0;"/><polygon fill="#181818" points="586.5,601.8428,590.5,592.8428,586.5,596.8428,582.5,592.8428,586.5,601.8428" style="stroke:#181818;stroke-width:1.0;"/></g></g></svg>