<?xml version="1.0" encoding="UTF-8" standalone="no"?><svg xmlns="http://www.w3.org/2000/svg" xmlns:xlink="http://www.w3.org/1999/xlink" contentStyleType="text/css" height="386px" preserveAspectRatio="none" style="width:691px;height:386px;background:#FFFFFF;" version="1.1" viewBox="0 0 691 386" width="691px" zoomAndPan="magnify"><defs/><g><g id="elem_FlowEngine"><rect codeLine="2" fill="#F1F1F1" height="48" id="FlowEngine" rx="2.5" ry="2.5" style="stroke:#181818;stroke-width:0.5;" width="111" x="303" y="331"/><ellipse cx="318" cy="347" fill="#B4A7E5" rx="11" ry="11" style="stroke:#181818;stroke-width:1.0;"/><path d="M313.9219,342.7656 L313.9219,340.6094 L321.3125,340.6094 L321.3125,342.7656 L318.8438,342.7656 L318.8438,350.8438 L321.3125,350.8438 L321.3125,353 L313.9219,353 L313.9219,350.8438 L316.3906,350.8438 L316.3906,342.7656 L313.9219,342.7656 Z " fill="#000000"/><text fill="#000000" font-family="sans-serif" font-size="14" font-style="italic" lengthAdjust="spacing" textLength="79" x="332" y="351.8467">FlowEngine</text><line style="stroke:#181818;stroke-width:0.5;" x1="304" x2="413" y1="363" y2="363"/><line style="stroke:#181818;stroke-width:0.5;" x1="304" x2="413" y1="371" y2="371"/></g><g id="elem_ProcessDefineService"><rect codeLine="3" fill="#F1F1F1" height="48" id="ProcessDefineService" rx="2.5" ry="2.5" style="stroke:#181818;stroke-width:0.5;" width="183" x="267" y="115"/><ellipse cx="282" cy="131" fill="#B4A7E5" rx="11" ry="11" style="stroke:#181818;stroke-width:1.0;"/><path d="M277.9219,126.7656 L277.9219,124.6094 L285.3125,124.6094 L285.3125,126.7656 L282.8438,126.7656 L282.8438,134.8438 L285.3125,134.8438 L285.3125,137 L277.9219,137 L277.9219,134.8438 L280.3906,134.8438 L280.3906,126.7656 L277.9219,126.7656 Z " fill="#000000"/><text fill="#000000" font-family="sans-serif" font-size="14" font-style="italic" lengthAdjust="spacing" textLength="151" x="296" y="135.8467">ProcessDefineService</text><line style="stroke:#181818;stroke-width:0.5;" x1="268" x2="449" y1="147" y2="147"/><line style="stroke:#181818;stroke-width:0.5;" x1="268" x2="449" y1="155" y2="155"/></g><g id="elem_ProcessInstanceService"><rect codeLine="4" fill="#F1F1F1" height="48" id="ProcessInstanceService" rx="2.5" ry="2.5" style="stroke:#181818;stroke-width:0.5;" width="197" x="39" y="223"/><ellipse cx="54" cy="239" fill="#B4A7E5" rx="11" ry="11" style="stroke:#181818;stroke-width:1.0;"/><path d="M49.9219,234.7656 L49.9219,232.6094 L57.3125,232.6094 L57.3125,234.7656 L54.8438,234.7656 L54.8438,242.8438 L57.3125,242.8438 L57.3125,245 L49.9219,245 L49.9219,242.8438 L52.3906,242.8438 L52.3906,234.7656 L49.9219,234.7656 Z " fill="#000000"/><text fill="#000000" font-family="sans-serif" font-size="14" font-style="italic" lengthAdjust="spacing" textLength="165" x="68" y="243.8467">ProcessInstanceService</text><line style="stroke:#181818;stroke-width:0.5;" x1="40" x2="235" y1="255" y2="255"/><line style="stroke:#181818;stroke-width:0.5;" x1="40" x2="235" y1="263" y2="263"/></g><g id="elem_ProcessTaskService"><rect codeLine="5" fill="#F1F1F1" height="48" id="ProcessTaskService" rx="2.5" ry="2.5" style="stroke:#181818;stroke-width:0.5;" width="171" x="481" y="223"/><ellipse cx="496" cy="239" fill="#B4A7E5" rx="11" ry="11" style="stroke:#181818;stroke-width:1.0;"/><path d="M491.9219,234.7656 L491.9219,232.6094 L499.3125,232.6094 L499.3125,234.7656 L496.8438,234.7656 L496.8438,242.8438 L499.3125,242.8438 L499.3125,245 L491.9219,245 L491.9219,242.8438 L494.3906,242.8438 L494.3906,234.7656 L491.9219,234.7656 Z " fill="#000000"/><text fill="#000000" font-family="sans-serif" font-size="14" font-style="italic" lengthAdjust="spacing" textLength="139" x="510" y="243.8467">ProcessTaskService</text><line style="stroke:#181818;stroke-width:0.5;" x1="482" x2="651" y1="255" y2="255"/><line style="stroke:#181818;stroke-width:0.5;" x1="482" x2="651" y1="263" y2="263"/></g><g id="elem_FlowEngineImpl"><rect codeLine="6" fill="#F1F1F1" height="48" id="FlowEngineImpl" rx="2.5" ry="2.5" style="stroke:#181818;stroke-width:0.5;" width="139" x="289" y="223"/><ellipse cx="304" cy="239" fill="#ADD1B2" rx="11" ry="11" style="stroke:#181818;stroke-width:1.0;"/><path d="M306.9688,244.6406 Q306.3906,244.9375 305.75,245.0781 Q305.1094,245.2344 304.4063,245.2344 Q301.9063,245.2344 300.5781,243.5938 Q299.2656,241.9375 299.2656,238.8125 Q299.2656,235.6875 300.5781,234.0313 Q301.9063,232.375 304.4063,232.375 Q305.1094,232.375 305.75,232.5313 Q306.4063,232.6875 306.9688,232.9844 L306.9688,235.7031 Q306.3438,235.125 305.75,234.8594 Q305.1563,234.5781 304.5313,234.5781 Q303.1875,234.5781 302.5,235.6563 Q301.8125,236.7188 301.8125,238.8125 Q301.8125,240.9063 302.5,241.9844 Q303.1875,243.0469 304.5313,243.0469 Q305.1563,243.0469 305.75,242.7813 Q306.3438,242.5 306.9688,241.9219 L306.9688,244.6406 Z " fill="#000000"/><text fill="#000000" font-family="sans-serif" font-size="14" lengthAdjust="spacing" textLength="107" x="318" y="243.8467">FlowEngineImpl</text><line style="stroke:#181818;stroke-width:0.5;" x1="290" x2="427" y1="255" y2="255"/><line style="stroke:#181818;stroke-width:0.5;" x1="290" x2="427" y1="263" y2="263"/></g><g id="elem_ProcessDefineServiceImpl"><rect codeLine="7" fill="#F1F1F1" height="48" id="ProcessDefineServiceImpl" rx="2.5" ry="2.5" style="stroke:#181818;stroke-width:0.5;" width="211" x="253" y="7"/><ellipse cx="268" cy="23" fill="#ADD1B2" rx="11" ry="11" style="stroke:#181818;stroke-width:1.0;"/><path d="M270.9688,28.6406 Q270.3906,28.9375 269.75,29.0781 Q269.1094,29.2344 268.4063,29.2344 Q265.9063,29.2344 264.5781,27.5938 Q263.2656,25.9375 263.2656,22.8125 Q263.2656,19.6875 264.5781,18.0313 Q265.9063,16.375 268.4063,16.375 Q269.1094,16.375 269.75,16.5313 Q270.4063,16.6875 270.9688,16.9844 L270.9688,19.7031 Q270.3438,19.125 269.75,18.8594 Q269.1563,18.5781 268.5313,18.5781 Q267.1875,18.5781 266.5,19.6563 Q265.8125,20.7188 265.8125,22.8125 Q265.8125,24.9063 266.5,25.9844 Q267.1875,27.0469 268.5313,27.0469 Q269.1563,27.0469 269.75,26.7813 Q270.3438,26.5 270.9688,25.9219 L270.9688,28.6406 Z " fill="#000000"/><text fill="#000000" font-family="sans-serif" font-size="14" lengthAdjust="spacing" textLength="179" x="282" y="27.8467">ProcessDefineServiceImpl</text><line style="stroke:#181818;stroke-width:0.5;" x1="254" x2="463" y1="39" y2="39"/><line style="stroke:#181818;stroke-width:0.5;" x1="254" x2="463" y1="47" y2="47"/></g><g id="elem_ProcessInstanceServiceImpl"><rect codeLine="8" fill="#F1F1F1" height="48" id="ProcessInstanceServiceImpl" rx="2.5" ry="2.5" style="stroke:#181818;stroke-width:0.5;" width="225" x="7" y="115"/><ellipse cx="22" cy="131" fill="#ADD1B2" rx="11" ry="11" style="stroke:#181818;stroke-width:1.0;"/><path d="M24.9688,136.6406 Q24.3906,136.9375 23.75,137.0781 Q23.1094,137.2344 22.4063,137.2344 Q19.9063,137.2344 18.5781,135.5938 Q17.2656,133.9375 17.2656,130.8125 Q17.2656,127.6875 18.5781,126.0313 Q19.9063,124.375 22.4063,124.375 Q23.1094,124.375 23.75,124.5313 Q24.4063,124.6875 24.9688,124.9844 L24.9688,127.7031 Q24.3438,127.125 23.75,126.8594 Q23.1563,126.5781 22.5313,126.5781 Q21.1875,126.5781 20.5,127.6563 Q19.8125,128.7188 19.8125,130.8125 Q19.8125,132.9063 20.5,133.9844 Q21.1875,135.0469 22.5313,135.0469 Q23.1563,135.0469 23.75,134.7813 Q24.3438,134.5 24.9688,133.9219 L24.9688,136.6406 Z " fill="#000000"/><text fill="#000000" font-family="sans-serif" font-size="14" lengthAdjust="spacing" textLength="193" x="36" y="135.8467">ProcessInstanceServiceImpl</text><line style="stroke:#181818;stroke-width:0.5;" x1="8" x2="231" y1="147" y2="147"/><line style="stroke:#181818;stroke-width:0.5;" x1="8" x2="231" y1="155" y2="155"/></g><g id="elem_ProcessTaskServiceImpl"><rect codeLine="9" fill="#F1F1F1" height="48" id="ProcessTaskServiceImpl" rx="2.5" ry="2.5" style="stroke:#181818;stroke-width:0.5;" width="199" x="485" y="115"/><ellipse cx="500" cy="131" fill="#ADD1B2" rx="11" ry="11" style="stroke:#181818;stroke-width:1.0;"/><path d="M502.9688,136.6406 Q502.3906,136.9375 501.75,137.0781 Q501.1094,137.2344 500.4063,137.2344 Q497.9063,137.2344 496.5781,135.5938 Q495.2656,133.9375 495.2656,130.8125 Q495.2656,127.6875 496.5781,126.0313 Q497.9063,124.375 500.4063,124.375 Q501.1094,124.375 501.75,124.5313 Q502.4063,124.6875 502.9688,124.9844 L502.9688,127.7031 Q502.3438,127.125 501.75,126.8594 Q501.1563,126.5781 500.5313,126.5781 Q499.1875,126.5781 498.5,127.6563 Q497.8125,128.7188 497.8125,130.8125 Q497.8125,132.9063 498.5,133.9844 Q499.1875,135.0469 500.5313,135.0469 Q501.1563,135.0469 501.75,134.7813 Q502.3438,134.5 502.9688,133.9219 L502.9688,136.6406 Z " fill="#000000"/><text fill="#000000" font-family="sans-serif" font-size="14" lengthAdjust="spacing" textLength="167" x="514" y="135.8467">ProcessTaskServiceImpl</text><line style="stroke:#181818;stroke-width:0.5;" x1="486" x2="683" y1="147" y2="147"/><line style="stroke:#181818;stroke-width:0.5;" x1="486" x2="683" y1="155" y2="155"/></g><g id="link_FlowEngineImpl_FlowEngine"><path codeLine="11" d="M358.5,271 C358.5,282.5885 358.5,297.0294 358.5,310.6013 " fill="none" id="FlowEngineImpl-to-FlowEngine" style="stroke:#181818;stroke-width:1.0;stroke-dasharray:7.0,7.0;"/><polygon fill="none" points="365.5,310.6785,358.5,330.6784,351.5,310.6784,365.5,310.6785" style="stroke:#181818;stroke-width:1.0;"/></g><g id="link_ProcessDefineServiceImpl_ProcessDefineService"><path codeLine="12" d="M358.5,55 C358.5,66.588 358.5,81.029 358.5,94.601 " fill="none" id="ProcessDefineServiceImpl-to-ProcessDefineService" style="stroke:#181818;stroke-width:1.0;stroke-dasharray:7.0,7.0;"/><polygon fill="none" points="365.5,94.678,358.5,114.678,351.5,94.678,365.5,94.678" style="stroke:#181818;stroke-width:1.0;"/></g><g id="link_ProcessInstanceServiceImpl_ProcessInstanceService"><path codeLine="13" d="M123.406,163 C125.374,174.588 127.826,189.029 130.13,202.601 " fill="none" id="ProcessInstanceServiceImpl-to-ProcessInstanceService" style="stroke:#181818;stroke-width:1.0;stroke-dasharray:7.0,7.0;"/><polygon fill="none" points="137.093,201.789,133.54,222.678,123.29,204.133,137.093,201.789" style="stroke:#181818;stroke-width:1.0;"/></g><g id="link_ProcessTaskServiceImpl_ProcessTaskService"><path codeLine="14" d="M580.594,163 C578.626,174.588 576.174,189.029 573.87,202.601 " fill="none" id="ProcessTaskServiceImpl-to-ProcessTaskService" style="stroke:#181818;stroke-width:1.0;stroke-dasharray:7.0,7.0;"/><polygon fill="none" points="580.71,204.133,570.46,222.678,566.907,201.789,580.71,204.133" style="stroke:#181818;stroke-width:1.0;"/></g><g id="link_ProcessDefineService_FlowEngineImpl"><path codeLine="16" d="M358.5,168.131 C358.5,185.154 358.5,206.604 358.5,222.678 " fill="none" id="ProcessDefineService-backto-FlowEngineImpl" style="stroke:#181818;stroke-width:1.0;stroke-dasharray:7.0,7.0;"/><polygon fill="#181818" points="358.5,163,354.5,172,358.5,168,362.5,172,358.5,163" style="stroke:#181818;stroke-width:1.0;"/></g><g id="link_ProcessInstanceService_FlowEngineImpl"><path codeLine="17" d="M241.677,247 C257.396,247 273.115,247 288.834,247 " fill="none" id="ProcessInstanceService-backto-FlowEngineImpl" style="stroke:#181818;stroke-width:1.0;stroke-dasharray:7.0,7.0;"/><polygon fill="#181818" points="236.346,247,245.346,251,241.346,247,245.346,243,236.346,247" style="stroke:#181818;stroke-width:1.0;"/></g><g id="link_FlowEngineImpl_ProcessTaskService"><path codeLine="18" d="M428.375,247 C444.129,247 459.884,247 475.638,247 " fill="none" id="FlowEngineImpl-to-ProcessTaskService" style="stroke:#181818;stroke-width:1.0;stroke-dasharray:7.0,7.0;"/><polygon fill="#181818" points="480.981,247,471.981,243,475.981,247,471.981,251,480.981,247" style="stroke:#181818;stroke-width:1.0;"/></g></g></svg>