<?xml version="1.0" encoding="UTF-8" standalone="no"?><svg xmlns="http://www.w3.org/2000/svg" xmlns:xlink="http://www.w3.org/1999/xlink" contentStyleType="text/css" height="551px" preserveAspectRatio="none" style="width:932px;height:551px;background:#FFFFFF;" version="1.1" viewBox="0 0 932 551" width="932px" zoomAndPan="magnify"><defs/><g><g id="elem_ProcessModel"><rect codeLine="1" fill="#F1F1F1" height="178.375" id="ProcessModel" rx="2.5" ry="2.5" style="stroke:#181818;stroke-width:0.5;" width="290" x="7" y="241"/><ellipse cx="98.75" cy="257" fill="#ADD1B2" rx="11" ry="11" style="stroke:#181818;stroke-width:1.0;"/><path d="M101.7188,262.6406 Q101.1406,262.9375 100.5,263.0781 Q99.8594,263.2344 99.1563,263.2344 Q96.6563,263.2344 95.3281,261.5938 Q94.0156,259.9375 94.0156,256.8125 Q94.0156,253.6875 95.3281,252.0313 Q96.6563,250.375 99.1563,250.375 Q99.8594,250.375 100.5,250.5313 Q101.1563,250.6875 101.7188,250.9844 L101.7188,253.7031 Q101.0938,253.125 100.5,252.8594 Q99.9063,252.5781 99.2813,252.5781 Q97.9375,252.5781 97.25,253.6563 Q96.5625,254.7188 96.5625,256.8125 Q96.5625,258.9063 97.25,259.9844 Q97.9375,261.0469 99.2813,261.0469 Q99.9063,261.0469 100.5,260.7813 Q101.0938,260.5 101.7188,259.9219 L101.7188,262.6406 Z " fill="#000000"/><text fill="#000000" font-family="sans-serif" font-size="14" lengthAdjust="spacing" textLength="98" x="119.25" y="261.8467">ProcessModel</text><line style="stroke:#181818;stroke-width:0.5;" x1="8" x2="296" y1="273" y2="273"/><rect fill="none" height="6" style="stroke:#C82930;stroke-width:1.0;" width="6" x="15" y="283.6484"/><text fill="#000000" font-family="sans-serif" font-size="14" lengthAdjust="spacing" textLength="79" x="27" y="289.9951">String type;</text><rect fill="none" height="6" style="stroke:#C82930;stroke-width:1.0;" width="6" x="15" y="299.9453"/><text fill="#000000" font-family="sans-serif" font-size="14" lengthAdjust="spacing" textLength="126" x="27" y="306.292">String instanceUrl;</text><rect fill="none" height="6" style="stroke:#C82930;stroke-width:1.0;" width="6" x="15" y="316.2422"/><text fill="#000000" font-family="sans-serif" font-size="14" lengthAdjust="spacing" textLength="125" x="27" y="322.5889">String expireTime;</text><rect fill="none" height="6" style="stroke:#C82930;stroke-width:1.0;" width="6" x="15" y="332.5391"/><text fill="#000000" font-family="sans-serif" font-size="14" lengthAdjust="spacing" textLength="164" x="27" y="338.8857">String instanceNoClass;</text><rect fill="none" height="6" style="stroke:#C82930;stroke-width:1.0;" width="6" x="15" y="348.8359"/><text fill="#000000" font-family="sans-serif" font-size="14" lengthAdjust="spacing" textLength="179" x="27" y="355.1826">List&lt;NodeModel&gt; nodes;</text><rect fill="none" height="6" style="stroke:#C82930;stroke-width:1.0;" width="6" x="15" y="365.1328"/><text fill="#000000" font-family="sans-serif" font-size="14" lengthAdjust="spacing" textLength="168" x="27" y="371.4795">List&lt;TaskModel&gt; tasks;</text><line style="stroke:#181818;stroke-width:0.5;" x1="8" x2="296" y1="378.7813" y2="378.7813"/><text fill="#000000" font-family="sans-serif" font-size="14" lengthAdjust="spacing" textLength="149" x="13" y="395.7764">TaskModel getStart();</text><text fill="#000000" font-family="sans-serif" font-size="14" lengthAdjust="spacing" textLength="278" x="13" y="412.0732">NodeModel getNode(String nodeName);</text></g><g id="elem_Action"><rect codeLine="11" fill="#F1F1F1" height="64.2969" id="Action" rx="2.5" ry="2.5" style="stroke:#181818;stroke-width:0.5;" width="255" x="500.5" y="116"/><ellipse cx="602.25" cy="132" fill="#B4A7E5" rx="11" ry="11" style="stroke:#181818;stroke-width:1.0;"/><path d="M598.1719,127.7656 L598.1719,125.6094 L605.5625,125.6094 L605.5625,127.7656 L603.0938,127.7656 L603.0938,135.8438 L605.5625,135.8438 L605.5625,138 L598.1719,138 L598.1719,135.8438 L600.6406,135.8438 L600.6406,127.7656 L598.1719,127.7656 Z " fill="#000000"/><text fill="#000000" font-family="sans-serif" font-size="14" font-style="italic" lengthAdjust="spacing" textLength="43" x="622.75" y="136.8467">Action</text><line style="stroke:#181818;stroke-width:0.5;" x1="501.5" x2="754.5" y1="148" y2="148"/><line style="stroke:#181818;stroke-width:0.5;" x1="501.5" x2="754.5" y1="156" y2="156"/><text fill="#000000" font-family="sans-serif" font-size="14" lengthAdjust="spacing" textLength="243" x="506.5" y="172.9951">void execute(Execution execution);</text></g><g id="elem_BaseModel"><rect codeLine="14" fill="#F1F1F1" height="48" id="BaseModel" rx="2.5" ry="2.5" style="stroke:#181818;stroke-width:0.5;" width="109" x="356.5" y="124"/><ellipse cx="371.5" cy="140" fill="#ADD1B2" rx="11" ry="11" style="stroke:#181818;stroke-width:1.0;"/><path d="M374.4688,145.6406 Q373.8906,145.9375 373.25,146.0781 Q372.6094,146.2344 371.9063,146.2344 Q369.4063,146.2344 368.0781,144.5938 Q366.7656,142.9375 366.7656,139.8125 Q366.7656,136.6875 368.0781,135.0313 Q369.4063,133.375 371.9063,133.375 Q372.6094,133.375 373.25,133.5313 Q373.9063,133.6875 374.4688,133.9844 L374.4688,136.7031 Q373.8438,136.125 373.25,135.8594 Q372.6563,135.5781 372.0313,135.5781 Q370.6875,135.5781 370,136.6563 Q369.3125,137.7188 369.3125,139.8125 Q369.3125,141.9063 370,142.9844 Q370.6875,144.0469 372.0313,144.0469 Q372.6563,144.0469 373.25,143.7813 Q373.8438,143.5 374.4688,142.9219 L374.4688,145.6406 Z " fill="#000000"/><text fill="#000000" font-family="sans-serif" font-size="14" lengthAdjust="spacing" textLength="77" x="385.5" y="144.8467">BaseModel</text><line style="stroke:#181818;stroke-width:0.5;" x1="357.5" x2="464.5" y1="156" y2="156"/><line style="stroke:#181818;stroke-width:0.5;" x1="357.5" x2="464.5" y1="164" y2="164"/></g><g id="elem_NodeModel"><rect codeLine="15" fill="#F1F1F1" height="64.2969" id="NodeModel" rx="2.5" ry="2.5" style="stroke:#181818;stroke-width:0.5;" width="232" x="360" y="298"/><ellipse cx="432.25" cy="314" fill="#A9DCDF" rx="11" ry="11" style="stroke:#181818;stroke-width:1.0;"/><path d="M432.3594,309.3438 L431.2031,314.4219 L433.5313,314.4219 L432.3594,309.3438 Z M430.875,307.1094 L433.8594,307.1094 L437.2188,319.5 L434.7656,319.5 L434,316.4375 L430.7188,316.4375 L429.9688,319.5 L427.5313,319.5 L430.875,307.1094 Z " fill="#000000"/><text fill="#000000" font-family="sans-serif" font-size="14" font-style="italic" lengthAdjust="spacing" textLength="79" x="452.75" y="318.8467">NodeModel</text><line style="stroke:#181818;stroke-width:0.5;" x1="361" x2="591" y1="330" y2="330"/><line style="stroke:#181818;stroke-width:0.5;" x1="361" x2="591" y1="338" y2="338"/><text fill="#000000" font-family="sans-serif" font-size="14" font-style="italic" lengthAdjust="spacing" textLength="220" x="366" y="354.9951">void exec(Execution execution);</text></g><g id="elem_Execution"><rect codeLine="18" fill="#F1F1F1" height="48" id="Execution" rx="2.5" ry="2.5" style="stroke:#181818;stroke-width:0.5;" width="100" x="578" y="7"/><ellipse cx="593" cy="23" fill="#ADD1B2" rx="11" ry="11" style="stroke:#181818;stroke-width:1.0;"/><path d="M595.9688,28.6406 Q595.3906,28.9375 594.75,29.0781 Q594.1094,29.2344 593.4063,29.2344 Q590.9063,29.2344 589.5781,27.5938 Q588.2656,25.9375 588.2656,22.8125 Q588.2656,19.6875 589.5781,18.0313 Q590.9063,16.375 593.4063,16.375 Q594.1094,16.375 594.75,16.5313 Q595.4063,16.6875 595.9688,16.9844 L595.9688,19.7031 Q595.3438,19.125 594.75,18.8594 Q594.1563,18.5781 593.5313,18.5781 Q592.1875,18.5781 591.5,19.6563 Q590.8125,20.7188 590.8125,22.8125 Q590.8125,24.9063 591.5,25.9844 Q592.1875,27.0469 593.5313,27.0469 Q594.1563,27.0469 594.75,26.7813 Q595.3438,26.5 595.9688,25.9219 L595.9688,28.6406 Z " fill="#000000"/><text fill="#000000" font-family="sans-serif" font-size="14" lengthAdjust="spacing" textLength="68" x="607" y="27.8467">Execution</text><line style="stroke:#181818;stroke-width:0.5;" x1="579" x2="677" y1="39" y2="39"/><line style="stroke:#181818;stroke-width:0.5;" x1="579" x2="677" y1="47" y2="47"/></g><g id="elem_StartModel"><rect codeLine="19" fill="#F1F1F1" height="48" id="StartModel" rx="2.5" ry="2.5" style="stroke:#181818;stroke-width:0.5;" width="106" x="241" y="496"/><ellipse cx="256" cy="512" fill="#ADD1B2" rx="11" ry="11" style="stroke:#181818;stroke-width:1.0;"/><path d="M258.9688,517.6406 Q258.3906,517.9375 257.75,518.0781 Q257.1094,518.2344 256.4063,518.2344 Q253.9063,518.2344 252.5781,516.5938 Q251.2656,514.9375 251.2656,511.8125 Q251.2656,508.6875 252.5781,507.0313 Q253.9063,505.375 256.4063,505.375 Q257.1094,505.375 257.75,505.5313 Q258.4063,505.6875 258.9688,505.9844 L258.9688,508.7031 Q258.3438,508.125 257.75,507.8594 Q257.1563,507.5781 256.5313,507.5781 Q255.1875,507.5781 254.5,508.6563 Q253.8125,509.7188 253.8125,511.8125 Q253.8125,513.9063 254.5,514.9844 Q255.1875,516.0469 256.5313,516.0469 Q257.1563,516.0469 257.75,515.7813 Q258.3438,515.5 258.9688,514.9219 L258.9688,517.6406 Z " fill="#000000"/><text fill="#000000" font-family="sans-serif" font-size="14" lengthAdjust="spacing" textLength="74" x="270" y="516.8467">StartModel</text><line style="stroke:#181818;stroke-width:0.5;" x1="242" x2="346" y1="528" y2="528"/><line style="stroke:#181818;stroke-width:0.5;" x1="242" x2="346" y1="536" y2="536"/></g><g id="elem_EndModel"><rect codeLine="20" fill="#F1F1F1" height="48" id="EndModel" rx="2.5" ry="2.5" style="stroke:#181818;stroke-width:0.5;" width="101" x="382.5" y="496"/><ellipse cx="397.5" cy="512" fill="#ADD1B2" rx="11" ry="11" style="stroke:#181818;stroke-width:1.0;"/><path d="M400.4688,517.6406 Q399.8906,517.9375 399.25,518.0781 Q398.6094,518.2344 397.9063,518.2344 Q395.4063,518.2344 394.0781,516.5938 Q392.7656,514.9375 392.7656,511.8125 Q392.7656,508.6875 394.0781,507.0313 Q395.4063,505.375 397.9063,505.375 Q398.6094,505.375 399.25,505.5313 Q399.9063,505.6875 400.4688,505.9844 L400.4688,508.7031 Q399.8438,508.125 399.25,507.8594 Q398.6563,507.5781 398.0313,507.5781 Q396.6875,507.5781 396,508.6563 Q395.3125,509.7188 395.3125,511.8125 Q395.3125,513.9063 396,514.9844 Q396.6875,516.0469 398.0313,516.0469 Q398.6563,516.0469 399.25,515.7813 Q399.8438,515.5 400.4688,514.9219 L400.4688,517.6406 Z " fill="#000000"/><text fill="#000000" font-family="sans-serif" font-size="14" lengthAdjust="spacing" textLength="69" x="411.5" y="516.8467">EndModel</text><line style="stroke:#181818;stroke-width:0.5;" x1="383.5" x2="482.5" y1="528" y2="528"/><line style="stroke:#181818;stroke-width:0.5;" x1="383.5" x2="482.5" y1="536" y2="536"/></g><g id="elem_TaskModel"><rect codeLine="21" fill="#F1F1F1" height="48" id="TaskModel" rx="2.5" ry="2.5" style="stroke:#181818;stroke-width:0.5;" width="107" x="98.5" y="496"/><ellipse cx="113.5" cy="512" fill="#ADD1B2" rx="11" ry="11" style="stroke:#181818;stroke-width:1.0;"/><path d="M116.4688,517.6406 Q115.8906,517.9375 115.25,518.0781 Q114.6094,518.2344 113.9063,518.2344 Q111.4063,518.2344 110.0781,516.5938 Q108.7656,514.9375 108.7656,511.8125 Q108.7656,508.6875 110.0781,507.0313 Q111.4063,505.375 113.9063,505.375 Q114.6094,505.375 115.25,505.5313 Q115.9063,505.6875 116.4688,505.9844 L116.4688,508.7031 Q115.8438,508.125 115.25,507.8594 Q114.6563,507.5781 114.0313,507.5781 Q112.6875,507.5781 112,508.6563 Q111.3125,509.7188 111.3125,511.8125 Q111.3125,513.9063 112,514.9844 Q112.6875,516.0469 114.0313,516.0469 Q114.6563,516.0469 115.25,515.7813 Q115.8438,515.5 116.4688,514.9219 L116.4688,517.6406 Z " fill="#000000"/><text fill="#000000" font-family="sans-serif" font-size="14" lengthAdjust="spacing" textLength="75" x="127.5" y="516.8467">TaskModel</text><line style="stroke:#181818;stroke-width:0.5;" x1="99.5" x2="204.5" y1="528" y2="528"/><line style="stroke:#181818;stroke-width:0.5;" x1="99.5" x2="204.5" y1="536" y2="536"/></g><g id="elem_DecisionModel"><rect codeLine="22" fill="#F1F1F1" height="48" id="DecisionModel" rx="2.5" ry="2.5" style="stroke:#181818;stroke-width:0.5;" width="134" x="519" y="496"/><ellipse cx="534" cy="512" fill="#ADD1B2" rx="11" ry="11" style="stroke:#181818;stroke-width:1.0;"/><path d="M536.9688,517.6406 Q536.3906,517.9375 535.75,518.0781 Q535.1094,518.2344 534.4063,518.2344 Q531.9063,518.2344 530.5781,516.5938 Q529.2656,514.9375 529.2656,511.8125 Q529.2656,508.6875 530.5781,507.0313 Q531.9063,505.375 534.4063,505.375 Q535.1094,505.375 535.75,505.5313 Q536.4063,505.6875 536.9688,505.9844 L536.9688,508.7031 Q536.3438,508.125 535.75,507.8594 Q535.1563,507.5781 534.5313,507.5781 Q533.1875,507.5781 532.5,508.6563 Q531.8125,509.7188 531.8125,511.8125 Q531.8125,513.9063 532.5,514.9844 Q533.1875,516.0469 534.5313,516.0469 Q535.1563,516.0469 535.75,515.7813 Q536.3438,515.5 536.9688,514.9219 L536.9688,517.6406 Z " fill="#000000"/><text fill="#000000" font-family="sans-serif" font-size="14" lengthAdjust="spacing" textLength="102" x="548" y="516.8467">DecisionModel</text><line style="stroke:#181818;stroke-width:0.5;" x1="520" x2="652" y1="528" y2="528"/><line style="stroke:#181818;stroke-width:0.5;" x1="520" x2="652" y1="536" y2="536"/></g><g id="elem_ForkModel"><rect codeLine="23" fill="#F1F1F1" height="48" id="ForkModel" rx="2.5" ry="2.5" style="stroke:#181818;stroke-width:0.5;" width="104" x="688" y="496"/><ellipse cx="703" cy="512" fill="#ADD1B2" rx="11" ry="11" style="stroke:#181818;stroke-width:1.0;"/><path d="M705.9688,517.6406 Q705.3906,517.9375 704.75,518.0781 Q704.1094,518.2344 703.4063,518.2344 Q700.9063,518.2344 699.5781,516.5938 Q698.2656,514.9375 698.2656,511.8125 Q698.2656,508.6875 699.5781,507.0313 Q700.9063,505.375 703.4063,505.375 Q704.1094,505.375 704.75,505.5313 Q705.4063,505.6875 705.9688,505.9844 L705.9688,508.7031 Q705.3438,508.125 704.75,507.8594 Q704.1563,507.5781 703.5313,507.5781 Q702.1875,507.5781 701.5,508.6563 Q700.8125,509.7188 700.8125,511.8125 Q700.8125,513.9063 701.5,514.9844 Q702.1875,516.0469 703.5313,516.0469 Q704.1563,516.0469 704.75,515.7813 Q705.3438,515.5 705.9688,514.9219 L705.9688,517.6406 Z " fill="#000000"/><text fill="#000000" font-family="sans-serif" font-size="14" lengthAdjust="spacing" textLength="72" x="717" y="516.8467">ForkModel</text><line style="stroke:#181818;stroke-width:0.5;" x1="689" x2="791" y1="528" y2="528"/><line style="stroke:#181818;stroke-width:0.5;" x1="689" x2="791" y1="536" y2="536"/></g><g id="elem_JoinModel"><rect codeLine="24" fill="#F1F1F1" height="48" id="JoinModel" rx="2.5" ry="2.5" style="stroke:#181818;stroke-width:0.5;" width="98" x="827" y="496"/><ellipse cx="842" cy="512" fill="#ADD1B2" rx="11" ry="11" style="stroke:#181818;stroke-width:1.0;"/><path d="M844.9688,517.6406 Q844.3906,517.9375 843.75,518.0781 Q843.1094,518.2344 842.4063,518.2344 Q839.9063,518.2344 838.5781,516.5938 Q837.2656,514.9375 837.2656,511.8125 Q837.2656,508.6875 838.5781,507.0313 Q839.9063,505.375 842.4063,505.375 Q843.1094,505.375 843.75,505.5313 Q844.4063,505.6875 844.9688,505.9844 L844.9688,508.7031 Q844.3438,508.125 843.75,507.8594 Q843.1563,507.5781 842.5313,507.5781 Q841.1875,507.5781 840.5,508.6563 Q839.8125,509.7188 839.8125,511.8125 Q839.8125,513.9063 840.5,514.9844 Q841.1875,516.0469 842.5313,516.0469 Q843.1563,516.0469 843.75,515.7813 Q844.3438,515.5 844.9688,514.9219 L844.9688,517.6406 Z " fill="#000000"/><text fill="#000000" font-family="sans-serif" font-size="14" lengthAdjust="spacing" textLength="66" x="856" y="516.8467">JoinModel</text><line style="stroke:#181818;stroke-width:0.5;" x1="828" x2="924" y1="528" y2="528"/><line style="stroke:#181818;stroke-width:0.5;" x1="828" x2="924" y1="536" y2="536"/></g><g id="elem_TransitionModel"><rect codeLine="25" fill="#F1F1F1" height="80.5938" id="TransitionModel" rx="2.5" ry="2.5" style="stroke:#181818;stroke-width:0.5;" width="162" x="627" y="289.5"/><ellipse cx="651" cy="305.5" fill="#ADD1B2" rx="11" ry="11" style="stroke:#181818;stroke-width:1.0;"/><path d="M653.9688,311.1406 Q653.3906,311.4375 652.75,311.5781 Q652.1094,311.7344 651.4063,311.7344 Q648.9063,311.7344 647.5781,310.0938 Q646.2656,308.4375 646.2656,305.3125 Q646.2656,302.1875 647.5781,300.5313 Q648.9063,298.875 651.4063,298.875 Q652.1094,298.875 652.75,299.0313 Q653.4063,299.1875 653.9688,299.4844 L653.9688,302.2031 Q653.3438,301.625 652.75,301.3594 Q652.1563,301.0781 651.5313,301.0781 Q650.1875,301.0781 649.5,302.1563 Q648.8125,303.2188 648.8125,305.3125 Q648.8125,307.4063 649.5,308.4844 Q650.1875,309.5469 651.5313,309.5469 Q652.1563,309.5469 652.75,309.2813 Q653.3438,309 653.9688,308.4219 L653.9688,311.1406 Z " fill="#000000"/><text fill="#000000" font-family="sans-serif" font-size="14" lengthAdjust="spacing" textLength="110" x="667" y="310.3467">TransitionModel</text><line style="stroke:#181818;stroke-width:0.5;" x1="628" x2="788" y1="321.5" y2="321.5"/><rect fill="none" height="6" style="stroke:#C82930;stroke-width:1.0;" width="6" x="635" y="332.1484"/><text fill="#000000" font-family="sans-serif" font-size="14" lengthAdjust="spacing" textLength="136" x="647" y="338.4951">NodeModel source;</text><rect fill="none" height="6" style="stroke:#C82930;stroke-width:1.0;" width="6" x="635" y="348.4453"/><text fill="#000000" font-family="sans-serif" font-size="14" lengthAdjust="spacing" textLength="129" x="647" y="354.792">NodeModel target;</text><line style="stroke:#181818;stroke-width:0.5;" x1="628" x2="788" y1="362.0938" y2="362.0938"/></g><g id="link_Execution_Action"><path codeLine="29" d="M628,60.347 C628,77.201 628,98.598 628,115.912 " fill="none" id="Execution-backto-Action" style="stroke:#181818;stroke-width:1.0;stroke-dasharray:7.0,7.0;"/><polygon fill="#181818" points="628,55.272,624,64.272,628,60.272,632,64.272,628,55.272" style="stroke:#181818;stroke-width:1.0;"/></g><g id="link_Action_NodeModel"><path codeLine="30" d="M588.576,195.686 C561.467,227.789 526.205,269.546 502.428,297.704 " fill="none" id="Action-backto-NodeModel" style="stroke:#181818;stroke-width:1.0;stroke-dasharray:7.0,7.0;"/><polygon fill="none" points="583.272,191.118,601.524,180.354,593.968,200.151,583.272,191.118" style="stroke:#181818;stroke-width:1.0;"/></g><g id="link_BaseModel_NodeModel"><path codeLine="31" d="M426.229,191.171 C438.014,223.809 454.071,268.275 464.723,297.772 " fill="none" id="BaseModel-backto-NodeModel" style="stroke:#181818;stroke-width:1.0;"/><polygon fill="none" points="419.574,193.352,419.365,172.163,432.741,188.597,419.574,193.352" style="stroke:#181818;stroke-width:1.0;"/></g><g id="link_NodeModel_StartModel"><path codeLine="32" d="M431.979,376.472 C395.459,414.196 345.03,466.2878 316.342,495.921 " fill="none" id="NodeModel-backto-StartModel" style="stroke:#181818;stroke-width:1.0;"/><polygon fill="none" points="427.006,371.545,445.946,362.044,437.065,381.283,427.006,371.545" style="stroke:#181818;stroke-width:1.0;"/></g><g id="link_NodeModel_EndModel"><path codeLine="33" d="M464.433,381.572 C455.925,418.772 444.756,467.6019 438.279,495.921 " fill="none" id="NodeModel-backto-EndModel" style="stroke:#181818;stroke-width:1.0;"/><polygon fill="none" points="457.616,379.98,468.899,362.044,471.264,383.102,457.616,379.98" style="stroke:#181818;stroke-width:1.0;"/></g><g id="link_NodeModel_TaskModel"><path codeLine="34" d="M404.877,372.269 C339.443,410.237 244.77,465.1708 191.774,495.921 " fill="none" id="NodeModel-backto-TaskModel" style="stroke:#181818;stroke-width:1.0;"/><polygon fill="none" points="401.686,366.027,422.498,362.044,408.712,378.137,401.686,366.027" style="stroke:#181818;stroke-width:1.0;"/></g><g id="link_NodeModel_DecisionModel"><path codeLine="35" d="M504.385,379.513 C526.291,416.952 555.619,467.0762 572.496,495.921 " fill="none" id="NodeModel-backto-DecisionModel" style="stroke:#181818;stroke-width:1.0;"/><polygon fill="none" points="498.223,382.842,494.164,362.044,510.306,375.772,498.223,382.842" style="stroke:#181818;stroke-width:1.0;"/></g><g id="link_NodeModel_ForkModel"><path codeLine="36" d="M536.015,373.738 C589.241,411.641 664.964,465.565 707.591,495.921 " fill="none" id="NodeModel-backto-ForkModel" style="stroke:#181818;stroke-width:1.0;"/><polygon fill="none" points="531.825,379.348,519.594,362.044,539.946,367.944,531.825,379.348" style="stroke:#181818;stroke-width:1.0;"/></g><g id="link_NodeModel_JoinModel"><path codeLine="37" d="M534.603,373.539 C557.455,389.032 584.299,405.934 610,419 C629.983,429.159 755.668,475.2976 826.893,501.2068 " fill="none" id="NodeModel-backto-JoinModel" style="stroke:#181818;stroke-width:1.0;"/><polygon fill="none" points="530.46,379.185,517.99,362.052,538.422,367.669,530.46,379.185" style="stroke:#181818;stroke-width:1.0;"/></g><g id="link_ProcessModel_NodeModel"><path codeLine="38" d="M310.651,330 C327.186,330 343.766,330 359.704,330 " fill="none" id="ProcessModel-backto-NodeModel" style="stroke:#181818;stroke-width:1.0;"/><polygon fill="#181818" points="297.415,330,303.415,334,309.415,330,303.415,326,297.415,330" style="stroke:#181818;stroke-width:1.0;"/><text fill="#000000" font-family="sans-serif" font-size="13" lengthAdjust="spacing" textLength="26" x="315.5" y="323.0669">包含</text><text fill="#000000" font-family="sans-serif" font-size="13" lengthAdjust="spacing" textLength="8" x="305.1192" y="326.6739">1</text><text fill="#000000" font-family="sans-serif" font-size="13" lengthAdjust="spacing" textLength="8" x="343.9975" y="326.5812">n</text></g><g id="link_ProcessModel_TaskModel"><path codeLine="39" d="M152,432.469 C152,456.2685 152,479.4254 152,495.7855 " fill="none" id="ProcessModel-backto-TaskModel" style="stroke:#181818;stroke-width:1.0;"/><polygon fill="#181818" points="152,419.22,148,425.22,152,431.22,156,425.22,152,419.22" style="stroke:#181818;stroke-width:1.0;"/><text fill="#000000" font-family="sans-serif" font-size="13" lengthAdjust="spacing" textLength="26" x="153" y="462.0669">包含</text><text fill="#000000" font-family="sans-serif" font-size="13" lengthAdjust="spacing" textLength="8" x="143.6563" y="439.5884">1</text><text fill="#000000" font-family="sans-serif" font-size="13" lengthAdjust="spacing" textLength="8" x="142.975" y="484.7426">n</text></g><g id="link_NodeModel_TransitionModel"><path codeLine="40" d="M597.179,330 C607.083,330 616.987,330 626.891,330 " fill="none" id="NodeModel-backto-TransitionModel" style="stroke:#181818;stroke-width:1.0;"/><polygon fill="#181818" points="592,330,601,334,597,330,601,326,592,330" style="stroke:#181818;stroke-width:1.0;"/></g></g></svg>